%TF.GenerationSoftware,KiCad,Pcbnew,6.0.4-6f826c9f35~116~ubuntu18.04.1*%
%TF.CreationDate,2022-04-20T20:45:48+02:00*%
%TF.ProjectId,FETProbe_tiny,46455450-726f-4626-955f-74696e792e6b,rev?*%
%TF.SameCoordinates,Original*%
%TF.FileFunction,Legend,Top*%
%TF.FilePolarity,Positive*%
%FSLAX46Y46*%
G04 Gerber Fmt 4.6, Leading zero omitted, Abs format (unit mm)*
G04 Created by KiCad (PCBNEW 6.0.4-6f826c9f35~116~ubuntu18.04.1) date 2022-04-20 20:45:48*
%MOMM*%
%LPD*%
G01*
G04 APERTURE LIST*
G04 Aperture macros list*
%AMRoundRect*
0 Rectangle with rounded corners*
0 $1 Rounding radius*
0 $2 $3 $4 $5 $6 $7 $8 $9 X,Y pos of 4 corners*
0 Add a 4 corners polygon primitive as box body*
4,1,4,$2,$3,$4,$5,$6,$7,$8,$9,$2,$3,0*
0 Add four circle primitives for the rounded corners*
1,1,$1+$1,$2,$3*
1,1,$1+$1,$4,$5*
1,1,$1+$1,$6,$7*
1,1,$1+$1,$8,$9*
0 Add four rect primitives between the rounded corners*
20,1,$1+$1,$2,$3,$4,$5,0*
20,1,$1+$1,$4,$5,$6,$7,0*
20,1,$1+$1,$6,$7,$8,$9,0*
20,1,$1+$1,$8,$9,$2,$3,0*%
G04 Aperture macros list end*
%ADD10C,0.150000*%
%ADD11C,0.060000*%
%ADD12C,0.120000*%
%ADD13RoundRect,0.050000X-0.500000X0.500000X-0.500000X-0.500000X0.500000X-0.500000X0.500000X0.500000X0*%
%ADD14RoundRect,0.050000X-1.100000X0.525000X-1.100000X-0.525000X1.100000X-0.525000X1.100000X0.525000X0*%
%ADD15RoundRect,0.050000X-0.825000X-0.500000X0.825000X-0.500000X0.825000X0.500000X-0.825000X0.500000X0*%
%ADD16RoundRect,0.050000X-0.500000X-1.065000X0.500000X-1.065000X0.500000X1.065000X-0.500000X1.065000X0*%
%ADD17RoundRect,0.050000X-0.500000X-0.500000X0.500000X-0.500000X0.500000X0.500000X-0.500000X0.500000X0*%
%ADD18RoundRect,0.050000X-1.900000X-0.500000X1.900000X-0.500000X1.900000X0.500000X-1.900000X0.500000X0*%
%ADD19RoundRect,0.050000X-0.500000X-1.900000X0.500000X-1.900000X0.500000X1.900000X-0.500000X1.900000X0*%
%ADD20RoundRect,0.050000X0.350000X0.500000X-0.350000X0.500000X-0.350000X-0.500000X0.350000X-0.500000X0*%
%ADD21RoundRect,0.050000X0.350000X0.300000X-0.350000X0.300000X-0.350000X-0.300000X0.350000X-0.300000X0*%
%ADD22RoundRect,0.185000X-0.135000X-0.185000X0.135000X-0.185000X0.135000X0.185000X-0.135000X0.185000X0*%
%ADD23RoundRect,0.300000X0.450000X0.425000X-0.450000X0.425000X-0.450000X-0.425000X0.450000X-0.425000X0*%
%ADD24RoundRect,0.185000X-0.185000X0.135000X-0.185000X-0.135000X0.185000X-0.135000X0.185000X0.135000X0*%
%ADD25C,2.100000*%
%ADD26RoundRect,0.190000X-0.170000X0.140000X-0.170000X-0.140000X0.170000X-0.140000X0.170000X0.140000X0*%
%ADD27RoundRect,0.190000X0.140000X0.170000X-0.140000X0.170000X-0.140000X-0.170000X0.140000X-0.170000X0*%
%ADD28RoundRect,0.300000X-0.325000X-0.650000X0.325000X-0.650000X0.325000X0.650000X-0.325000X0.650000X0*%
%ADD29RoundRect,0.050000X0.300000X0.350000X-0.300000X0.350000X-0.300000X-0.350000X0.300000X-0.350000X0*%
%ADD30RoundRect,0.197500X-0.147500X-0.172500X0.147500X-0.172500X0.147500X0.172500X-0.147500X0.172500X0*%
%ADD31RoundRect,0.185000X0.185000X-0.135000X0.185000X0.135000X-0.185000X0.135000X-0.185000X-0.135000X0*%
G04 APERTURE END LIST*
D10*
X112450000Y-98750000D02*
X111700000Y-98750000D01*
X111700000Y-98750000D02*
X111250000Y-98950000D01*
X121452380Y-93785714D02*
X121452380Y-94785714D01*
X121452380Y-93833333D02*
X121547619Y-93785714D01*
X121738095Y-93785714D01*
X121833333Y-93833333D01*
X121880952Y-93880952D01*
X121928571Y-93976190D01*
X121928571Y-94261904D01*
X121880952Y-94357142D01*
X121833333Y-94404761D01*
X121738095Y-94452380D01*
X121547619Y-94452380D01*
X121452380Y-94404761D01*
X122261904Y-93785714D02*
X122452380Y-94452380D01*
X122642857Y-93976190D01*
X122833333Y-94452380D01*
X123023809Y-93785714D01*
X123404761Y-94452380D02*
X123404761Y-93785714D01*
X123404761Y-93976190D02*
X123452380Y-93880952D01*
X123500000Y-93833333D01*
X123595238Y-93785714D01*
X123690476Y-93785714D01*
X121595238Y-106104761D02*
X121690476Y-106152380D01*
X121880952Y-106152380D01*
X121976190Y-106104761D01*
X122023809Y-106009523D01*
X122023809Y-105961904D01*
X121976190Y-105866666D01*
X121880952Y-105819047D01*
X121738095Y-105819047D01*
X121642857Y-105771428D01*
X121595238Y-105676190D01*
X121595238Y-105628571D01*
X121642857Y-105533333D01*
X121738095Y-105485714D01*
X121880952Y-105485714D01*
X121976190Y-105533333D01*
X122452380Y-106152380D02*
X122452380Y-105485714D01*
X122452380Y-105152380D02*
X122404761Y-105200000D01*
X122452380Y-105247619D01*
X122500000Y-105200000D01*
X122452380Y-105152380D01*
X122452380Y-105247619D01*
X123357142Y-105485714D02*
X123357142Y-106295238D01*
X123309523Y-106390476D01*
X123261904Y-106438095D01*
X123166666Y-106485714D01*
X123023809Y-106485714D01*
X122928571Y-106438095D01*
X123357142Y-106104761D02*
X123261904Y-106152380D01*
X123071428Y-106152380D01*
X122976190Y-106104761D01*
X122928571Y-106057142D01*
X122880952Y-105961904D01*
X122880952Y-105676190D01*
X122928571Y-105580952D01*
X122976190Y-105533333D01*
X123071428Y-105485714D01*
X123261904Y-105485714D01*
X123357142Y-105533333D01*
X105714285Y-95509523D02*
X104904761Y-95509523D01*
X104809523Y-95461904D01*
X104761904Y-95414285D01*
X104714285Y-95319047D01*
X104714285Y-95176190D01*
X104761904Y-95080952D01*
X105095238Y-95509523D02*
X105047619Y-95414285D01*
X105047619Y-95223809D01*
X105095238Y-95128571D01*
X105142857Y-95080952D01*
X105238095Y-95033333D01*
X105523809Y-95033333D01*
X105619047Y-95080952D01*
X105666666Y-95128571D01*
X105714285Y-95223809D01*
X105714285Y-95414285D01*
X105666666Y-95509523D01*
X105714285Y-95985714D02*
X105047619Y-95985714D01*
X105619047Y-95985714D02*
X105666666Y-96033333D01*
X105714285Y-96128571D01*
X105714285Y-96271428D01*
X105666666Y-96366666D01*
X105571428Y-96414285D01*
X105047619Y-96414285D01*
X105047619Y-97319047D02*
X106047619Y-97319047D01*
X105095238Y-97319047D02*
X105047619Y-97223809D01*
X105047619Y-97033333D01*
X105095238Y-96938095D01*
X105142857Y-96890476D01*
X105238095Y-96842857D01*
X105523809Y-96842857D01*
X105619047Y-96890476D01*
X105666666Y-96938095D01*
X105714285Y-97033333D01*
X105714285Y-97223809D01*
X105666666Y-97319047D01*
D11*
X122333333Y-100226190D02*
X122333333Y-100583333D01*
X122309523Y-100654761D01*
X122261904Y-100702380D01*
X122190476Y-100726190D01*
X122142857Y-100726190D01*
X122809523Y-100226190D02*
X122571428Y-100226190D01*
X122547619Y-100464285D01*
X122571428Y-100440476D01*
X122619047Y-100416666D01*
X122738095Y-100416666D01*
X122785714Y-100440476D01*
X122809523Y-100464285D01*
X122833333Y-100511904D01*
X122833333Y-100630952D01*
X122809523Y-100678571D01*
X122785714Y-100702380D01*
X122738095Y-100726190D01*
X122619047Y-100726190D01*
X122571428Y-100702380D01*
X122547619Y-100678571D01*
X113223809Y-99047619D02*
X113200000Y-99095238D01*
X113152380Y-99142857D01*
X113080952Y-99214285D01*
X113057142Y-99261904D01*
X113057142Y-99309523D01*
X113176190Y-99285714D02*
X113152380Y-99333333D01*
X113104761Y-99380952D01*
X113009523Y-99404761D01*
X112842857Y-99404761D01*
X112747619Y-99380952D01*
X112700000Y-99333333D01*
X112676190Y-99285714D01*
X112676190Y-99190476D01*
X112700000Y-99142857D01*
X112747619Y-99095238D01*
X112842857Y-99071428D01*
X113009523Y-99071428D01*
X113104761Y-99095238D01*
X113152380Y-99142857D01*
X113176190Y-99190476D01*
X113176190Y-99285714D01*
X113176190Y-98595238D02*
X113176190Y-98880952D01*
X113176190Y-98738095D02*
X112676190Y-98738095D01*
X112747619Y-98785714D01*
X112795238Y-98833333D01*
X112819047Y-98880952D01*
X112916666Y-98226190D02*
X112750000Y-97988095D01*
X112630952Y-98226190D02*
X112630952Y-97726190D01*
X112821428Y-97726190D01*
X112869047Y-97750000D01*
X112892857Y-97773809D01*
X112916666Y-97821428D01*
X112916666Y-97892857D01*
X112892857Y-97940476D01*
X112869047Y-97964285D01*
X112821428Y-97988095D01*
X112630952Y-97988095D01*
X113107142Y-97773809D02*
X113130952Y-97750000D01*
X113178571Y-97726190D01*
X113297619Y-97726190D01*
X113345238Y-97750000D01*
X113369047Y-97773809D01*
X113392857Y-97821428D01*
X113392857Y-97869047D01*
X113369047Y-97940476D01*
X113083333Y-98226190D01*
X113392857Y-98226190D01*
X110116666Y-95178571D02*
X110092857Y-95202380D01*
X110021428Y-95226190D01*
X109973809Y-95226190D01*
X109902380Y-95202380D01*
X109854761Y-95154761D01*
X109830952Y-95107142D01*
X109807142Y-95011904D01*
X109807142Y-94940476D01*
X109830952Y-94845238D01*
X109854761Y-94797619D01*
X109902380Y-94750000D01*
X109973809Y-94726190D01*
X110021428Y-94726190D01*
X110092857Y-94750000D01*
X110116666Y-94773809D01*
X110283333Y-94726190D02*
X110592857Y-94726190D01*
X110426190Y-94916666D01*
X110497619Y-94916666D01*
X110545238Y-94940476D01*
X110569047Y-94964285D01*
X110592857Y-95011904D01*
X110592857Y-95130952D01*
X110569047Y-95178571D01*
X110545238Y-95202380D01*
X110497619Y-95226190D01*
X110354761Y-95226190D01*
X110307142Y-95202380D01*
X110283333Y-95178571D01*
X106676190Y-100133333D02*
X106438095Y-100300000D01*
X106676190Y-100419047D02*
X106176190Y-100419047D01*
X106176190Y-100228571D01*
X106200000Y-100180952D01*
X106223809Y-100157142D01*
X106271428Y-100133333D01*
X106342857Y-100133333D01*
X106390476Y-100157142D01*
X106414285Y-100180952D01*
X106438095Y-100228571D01*
X106438095Y-100419047D01*
X106176190Y-99966666D02*
X106176190Y-99657142D01*
X106366666Y-99823809D01*
X106366666Y-99752380D01*
X106390476Y-99704761D01*
X106414285Y-99680952D01*
X106461904Y-99657142D01*
X106580952Y-99657142D01*
X106628571Y-99680952D01*
X106652380Y-99704761D01*
X106676190Y-99752380D01*
X106676190Y-99895238D01*
X106652380Y-99942857D01*
X106628571Y-99966666D01*
X122333333Y-99276190D02*
X122333333Y-99633333D01*
X122309523Y-99704761D01*
X122261904Y-99752380D01*
X122190476Y-99776190D01*
X122142857Y-99776190D01*
X122833333Y-99776190D02*
X122547619Y-99776190D01*
X122690476Y-99776190D02*
X122690476Y-99276190D01*
X122642857Y-99347619D01*
X122595238Y-99395238D01*
X122547619Y-99419047D01*
X106676190Y-97983333D02*
X106438095Y-98150000D01*
X106676190Y-98269047D02*
X106176190Y-98269047D01*
X106176190Y-98078571D01*
X106200000Y-98030952D01*
X106223809Y-98007142D01*
X106271428Y-97983333D01*
X106342857Y-97983333D01*
X106390476Y-98007142D01*
X106414285Y-98030952D01*
X106438095Y-98078571D01*
X106438095Y-98269047D01*
X106676190Y-97507142D02*
X106676190Y-97792857D01*
X106676190Y-97650000D02*
X106176190Y-97650000D01*
X106247619Y-97697619D01*
X106295238Y-97745238D01*
X106319047Y-97792857D01*
X115278571Y-101133333D02*
X115302380Y-101157142D01*
X115326190Y-101228571D01*
X115326190Y-101276190D01*
X115302380Y-101347619D01*
X115254761Y-101395238D01*
X115207142Y-101419047D01*
X115111904Y-101442857D01*
X115040476Y-101442857D01*
X114945238Y-101419047D01*
X114897619Y-101395238D01*
X114850000Y-101347619D01*
X114826190Y-101276190D01*
X114826190Y-101228571D01*
X114850000Y-101157142D01*
X114873809Y-101133333D01*
X114826190Y-100704761D02*
X114826190Y-100800000D01*
X114850000Y-100847619D01*
X114873809Y-100871428D01*
X114945238Y-100919047D01*
X115040476Y-100942857D01*
X115230952Y-100942857D01*
X115278571Y-100919047D01*
X115302380Y-100895238D01*
X115326190Y-100847619D01*
X115326190Y-100752380D01*
X115302380Y-100704761D01*
X115278571Y-100680952D01*
X115230952Y-100657142D01*
X115111904Y-100657142D01*
X115064285Y-100680952D01*
X115040476Y-100704761D01*
X115016666Y-100752380D01*
X115016666Y-100847619D01*
X115040476Y-100895238D01*
X115064285Y-100919047D01*
X115111904Y-100942857D01*
X114016666Y-98178571D02*
X113992857Y-98202380D01*
X113921428Y-98226190D01*
X113873809Y-98226190D01*
X113802380Y-98202380D01*
X113754761Y-98154761D01*
X113730952Y-98107142D01*
X113707142Y-98011904D01*
X113707142Y-97940476D01*
X113730952Y-97845238D01*
X113754761Y-97797619D01*
X113802380Y-97750000D01*
X113873809Y-97726190D01*
X113921428Y-97726190D01*
X113992857Y-97750000D01*
X114016666Y-97773809D01*
X114492857Y-98226190D02*
X114207142Y-98226190D01*
X114350000Y-98226190D02*
X114350000Y-97726190D01*
X114302380Y-97797619D01*
X114254761Y-97845238D01*
X114207142Y-97869047D01*
X117878571Y-100483333D02*
X117902380Y-100507142D01*
X117926190Y-100578571D01*
X117926190Y-100626190D01*
X117902380Y-100697619D01*
X117854761Y-100745238D01*
X117807142Y-100769047D01*
X117711904Y-100792857D01*
X117640476Y-100792857D01*
X117545238Y-100769047D01*
X117497619Y-100745238D01*
X117450000Y-100697619D01*
X117426190Y-100626190D01*
X117426190Y-100578571D01*
X117450000Y-100507142D01*
X117473809Y-100483333D01*
X117426190Y-100316666D02*
X117426190Y-99983333D01*
X117926190Y-100197619D01*
X111516666Y-104628571D02*
X111492857Y-104652380D01*
X111421428Y-104676190D01*
X111373809Y-104676190D01*
X111302380Y-104652380D01*
X111254761Y-104604761D01*
X111230952Y-104557142D01*
X111207142Y-104461904D01*
X111207142Y-104390476D01*
X111230952Y-104295238D01*
X111254761Y-104247619D01*
X111302380Y-104200000D01*
X111373809Y-104176190D01*
X111421428Y-104176190D01*
X111492857Y-104200000D01*
X111516666Y-104223809D01*
X111969047Y-104176190D02*
X111730952Y-104176190D01*
X111707142Y-104414285D01*
X111730952Y-104390476D01*
X111778571Y-104366666D01*
X111897619Y-104366666D01*
X111945238Y-104390476D01*
X111969047Y-104414285D01*
X111992857Y-104461904D01*
X111992857Y-104580952D01*
X111969047Y-104628571D01*
X111945238Y-104652380D01*
X111897619Y-104676190D01*
X111778571Y-104676190D01*
X111730952Y-104652380D01*
X111707142Y-104628571D01*
X113530952Y-95326190D02*
X113530952Y-94826190D01*
X113650000Y-94826190D01*
X113721428Y-94850000D01*
X113769047Y-94897619D01*
X113792857Y-94945238D01*
X113816666Y-95040476D01*
X113816666Y-95111904D01*
X113792857Y-95207142D01*
X113769047Y-95254761D01*
X113721428Y-95302380D01*
X113650000Y-95326190D01*
X113530952Y-95326190D01*
X114007142Y-94873809D02*
X114030952Y-94850000D01*
X114078571Y-94826190D01*
X114197619Y-94826190D01*
X114245238Y-94850000D01*
X114269047Y-94873809D01*
X114292857Y-94921428D01*
X114292857Y-94969047D01*
X114269047Y-95040476D01*
X113983333Y-95326190D01*
X114292857Y-95326190D01*
X116416666Y-101426190D02*
X116178571Y-101426190D01*
X116178571Y-100926190D01*
X116845238Y-101426190D02*
X116559523Y-101426190D01*
X116702380Y-101426190D02*
X116702380Y-100926190D01*
X116654761Y-100997619D01*
X116607142Y-101045238D01*
X116559523Y-101069047D01*
X113276190Y-101133333D02*
X113038095Y-101300000D01*
X113276190Y-101419047D02*
X112776190Y-101419047D01*
X112776190Y-101228571D01*
X112800000Y-101180952D01*
X112823809Y-101157142D01*
X112871428Y-101133333D01*
X112942857Y-101133333D01*
X112990476Y-101157142D01*
X113014285Y-101180952D01*
X113038095Y-101228571D01*
X113038095Y-101419047D01*
X112942857Y-100704761D02*
X113276190Y-100704761D01*
X112752380Y-100823809D02*
X113109523Y-100942857D01*
X113109523Y-100633333D01*
D12*
X121000000Y-102300000D02*
X120500000Y-102300000D01*
X121000000Y-103700000D02*
X120500000Y-103700000D01*
X123800000Y-101500000D02*
X124000000Y-101500000D01*
X121200000Y-104500000D02*
X121000000Y-104500000D01*
X124000000Y-101500000D02*
X124000000Y-102300000D01*
X124000000Y-104500000D02*
X123800000Y-104500000D01*
X121000000Y-102300000D02*
X121000000Y-101700000D01*
X121000000Y-101700000D02*
X121200000Y-101500000D01*
X124000000Y-103700000D02*
X124000000Y-104500000D01*
X121000000Y-104500000D02*
X121000000Y-103700000D01*
X109400000Y-93020000D02*
X111000000Y-93020000D01*
X109400000Y-106980000D02*
X111000000Y-106980000D01*
X119700000Y-102200000D02*
X119700000Y-103800000D01*
X119700000Y-96200000D02*
X119700000Y-97800000D01*
X115400000Y-106980000D02*
X117000000Y-106980000D01*
X115400000Y-93020000D02*
X117000000Y-93020000D01*
X110700000Y-98750000D02*
X108300000Y-98750000D01*
X108300000Y-101850000D02*
X111250000Y-101850000D01*
X108746359Y-98380000D02*
X109053641Y-98380000D01*
X108746359Y-97620000D02*
X109053641Y-97620000D01*
X112510000Y-95465000D02*
X108600000Y-95465000D01*
X112510000Y-97335000D02*
X112510000Y-95465000D01*
X108600000Y-97335000D02*
X112510000Y-97335000D01*
X107020000Y-100546359D02*
X107020000Y-100853641D01*
X107780000Y-100546359D02*
X107780000Y-100853641D01*
X124000000Y-97700000D02*
X124000000Y-98500000D01*
X121200000Y-98500000D02*
X121000000Y-98500000D01*
X121000000Y-96300000D02*
X121000000Y-95700000D01*
X124000000Y-98500000D02*
X123800000Y-98500000D01*
X124000000Y-95500000D02*
X124000000Y-96300000D01*
X121000000Y-98500000D02*
X121000000Y-97700000D01*
X121000000Y-96300000D02*
X120500000Y-96300000D01*
X121000000Y-95700000D02*
X121200000Y-95500000D01*
X123800000Y-95500000D02*
X124000000Y-95500000D01*
X121000000Y-97700000D02*
X120500000Y-97700000D01*
X107020000Y-97746359D02*
X107020000Y-98053641D01*
X107780000Y-97746359D02*
X107780000Y-98053641D01*
X115360000Y-102412164D02*
X115360000Y-102627836D01*
X114640000Y-102412164D02*
X114640000Y-102627836D01*
X110907836Y-97640000D02*
X110692164Y-97640000D01*
X110907836Y-98360000D02*
X110692164Y-98360000D01*
X104600000Y-97400000D02*
G75*
G03*
X104600000Y-97400000I-1200000J0D01*
G01*
X118360000Y-102412164D02*
X118360000Y-102627836D01*
X117640000Y-102412164D02*
X117640000Y-102627836D01*
X111388748Y-102090000D02*
X112811252Y-102090000D01*
X111388748Y-103910000D02*
X112811252Y-103910000D01*
X114600000Y-97000000D02*
X112750000Y-97000000D01*
X114600000Y-95800000D02*
X112750000Y-95800000D01*
X112750000Y-95800000D02*
X112750000Y-97000000D01*
X111720000Y-100753641D02*
X111720000Y-100446359D01*
X112480000Y-100753641D02*
X112480000Y-100446359D01*
%LPC*%
D13*
X121000000Y-103000000D03*
X124000000Y-103000000D03*
D14*
X122500000Y-101525000D03*
X122500000Y-104475000D03*
D15*
X108275000Y-106730000D03*
X108275000Y-93270000D03*
D16*
X119450000Y-94835000D03*
D17*
X119450000Y-106730000D03*
X119450000Y-93270000D03*
D18*
X113200000Y-106730000D03*
D16*
X119450000Y-105165000D03*
D19*
X119450000Y-100000000D03*
D15*
X118125000Y-93270000D03*
D17*
X106950000Y-93270000D03*
X106950000Y-106730000D03*
D15*
X118125000Y-106730000D03*
D18*
X113200000Y-93270000D03*
D20*
X110600000Y-101050000D03*
D21*
X110600000Y-99350000D03*
X108400000Y-99350000D03*
X108400000Y-101250000D03*
D22*
X108390000Y-98000000D03*
X109410000Y-98000000D03*
D23*
X111550000Y-96400000D03*
X108850000Y-96400000D03*
D24*
X107400000Y-100190000D03*
X107400000Y-101210000D03*
D13*
X121000000Y-97000000D03*
X124000000Y-97000000D03*
D14*
X122500000Y-98475000D03*
X122500000Y-95525000D03*
D24*
X107400000Y-97390000D03*
X107400000Y-98410000D03*
D25*
X103370000Y-102190000D03*
D26*
X115000000Y-102040000D03*
X115000000Y-103000000D03*
D27*
X111280000Y-98000000D03*
X110320000Y-98000000D03*
D25*
X103400000Y-97400000D03*
D26*
X118000000Y-102040000D03*
X118000000Y-103000000D03*
D28*
X110625000Y-103000000D03*
X113575000Y-103000000D03*
D29*
X113200000Y-96400000D03*
X114600000Y-96400000D03*
D30*
X116015000Y-103000000D03*
X116985000Y-103000000D03*
D31*
X112100000Y-101110000D03*
X112100000Y-100090000D03*
M02*
