%TF.GenerationSoftware,KiCad,Pcbnew,6.0.4-6f826c9f35~116~ubuntu18.04.1*%
%TF.CreationDate,2022-04-20T20:45:48+02:00*%
%TF.ProjectId,FETProbe_tiny,46455450-726f-4626-955f-74696e792e6b,rev?*%
%TF.SameCoordinates,Original*%
%TF.FileFunction,Copper,L1,Top*%
%TF.FilePolarity,Positive*%
%FSLAX46Y46*%
G04 Gerber Fmt 4.6, Leading zero omitted, Abs format (unit mm)*
G04 Created by KiCad (PCBNEW 6.0.4-6f826c9f35~116~ubuntu18.04.1) date 2022-04-20 20:45:48*
%MOMM*%
%LPD*%
G01*
G04 APERTURE LIST*
G04 Aperture macros list*
%AMRoundRect*
0 Rectangle with rounded corners*
0 $1 Rounding radius*
0 $2 $3 $4 $5 $6 $7 $8 $9 X,Y pos of 4 corners*
0 Add a 4 corners polygon primitive as box body*
4,1,4,$2,$3,$4,$5,$6,$7,$8,$9,$2,$3,0*
0 Add four circle primitives for the rounded corners*
1,1,$1+$1,$2,$3*
1,1,$1+$1,$4,$5*
1,1,$1+$1,$6,$7*
1,1,$1+$1,$8,$9*
0 Add four rect primitives between the rounded corners*
20,1,$1+$1,$2,$3,$4,$5,0*
20,1,$1+$1,$4,$5,$6,$7,0*
20,1,$1+$1,$6,$7,$8,$9,0*
20,1,$1+$1,$8,$9,$2,$3,0*%
G04 Aperture macros list end*
%TA.AperFunction,SMDPad,CuDef*%
%ADD10R,1.000000X1.000000*%
%TD*%
%TA.AperFunction,SMDPad,CuDef*%
%ADD11R,2.200000X1.050000*%
%TD*%
%TA.AperFunction,SMDPad,CuDef*%
%ADD12R,1.650000X1.000000*%
%TD*%
%TA.AperFunction,SMDPad,CuDef*%
%ADD13R,1.000000X2.130000*%
%TD*%
%TA.AperFunction,SMDPad,CuDef*%
%ADD14R,3.800000X1.000000*%
%TD*%
%TA.AperFunction,SMDPad,CuDef*%
%ADD15R,1.000000X3.800000*%
%TD*%
%TA.AperFunction,SMDPad,CuDef*%
%ADD16R,0.700000X1.000000*%
%TD*%
%TA.AperFunction,SMDPad,CuDef*%
%ADD17R,0.700000X0.600000*%
%TD*%
%TA.AperFunction,SMDPad,CuDef*%
%ADD18RoundRect,0.135000X-0.135000X-0.185000X0.135000X-0.185000X0.135000X0.185000X-0.135000X0.185000X0*%
%TD*%
%TA.AperFunction,SMDPad,CuDef*%
%ADD19RoundRect,0.250000X0.450000X0.425000X-0.450000X0.425000X-0.450000X-0.425000X0.450000X-0.425000X0*%
%TD*%
%TA.AperFunction,SMDPad,CuDef*%
%ADD20RoundRect,0.135000X-0.185000X0.135000X-0.185000X-0.135000X0.185000X-0.135000X0.185000X0.135000X0*%
%TD*%
%TA.AperFunction,ComponentPad*%
%ADD21C,2.000000*%
%TD*%
%TA.AperFunction,SMDPad,CuDef*%
%ADD22R,2.500000X2.500000*%
%TD*%
%TA.AperFunction,SMDPad,CuDef*%
%ADD23RoundRect,0.140000X-0.170000X0.140000X-0.170000X-0.140000X0.170000X-0.140000X0.170000X0.140000X0*%
%TD*%
%TA.AperFunction,SMDPad,CuDef*%
%ADD24RoundRect,0.140000X0.140000X0.170000X-0.140000X0.170000X-0.140000X-0.170000X0.140000X-0.170000X0*%
%TD*%
%TA.AperFunction,SMDPad,CuDef*%
%ADD25RoundRect,0.250000X-0.325000X-0.650000X0.325000X-0.650000X0.325000X0.650000X-0.325000X0.650000X0*%
%TD*%
%TA.AperFunction,SMDPad,CuDef*%
%ADD26R,0.600000X0.700000*%
%TD*%
%TA.AperFunction,SMDPad,CuDef*%
%ADD27RoundRect,0.147500X-0.147500X-0.172500X0.147500X-0.172500X0.147500X0.172500X-0.147500X0.172500X0*%
%TD*%
%TA.AperFunction,SMDPad,CuDef*%
%ADD28RoundRect,0.135000X0.185000X-0.135000X0.185000X0.135000X-0.185000X0.135000X-0.185000X-0.135000X0*%
%TD*%
%TA.AperFunction,ViaPad*%
%ADD29C,0.600000*%
%TD*%
%TA.AperFunction,Conductor*%
%ADD30C,0.600000*%
%TD*%
%TA.AperFunction,Conductor*%
%ADD31C,0.757000*%
%TD*%
%TA.AperFunction,Conductor*%
%ADD32C,0.150000*%
%TD*%
G04 APERTURE END LIST*
D10*
X121000000Y-103000000D03*
X124000000Y-103000000D03*
D11*
X122500000Y-101525000D03*
X122500000Y-104475000D03*
D12*
X108275000Y-106730000D03*
X108275000Y-93270000D03*
D13*
X119450000Y-94835000D03*
D10*
X119450000Y-106730000D03*
X119450000Y-93270000D03*
D14*
X113200000Y-106730000D03*
D13*
X119450000Y-105165000D03*
D15*
X119450000Y-100000000D03*
D12*
X118125000Y-93270000D03*
D10*
X106950000Y-93270000D03*
X106950000Y-106730000D03*
D12*
X118125000Y-106730000D03*
D14*
X113200000Y-93270000D03*
D16*
X110600000Y-101050000D03*
D17*
X110600000Y-99350000D03*
X108400000Y-99350000D03*
X108400000Y-101250000D03*
D18*
X108390000Y-98000000D03*
X109410000Y-98000000D03*
D19*
X111550000Y-96400000D03*
X108850000Y-96400000D03*
D20*
X107400000Y-100190000D03*
X107400000Y-101210000D03*
D10*
X121000000Y-97000000D03*
X124000000Y-97000000D03*
D11*
X122500000Y-98475000D03*
X122500000Y-95525000D03*
D20*
X107400000Y-97390000D03*
X107400000Y-98410000D03*
D21*
X103370000Y-102190000D03*
D22*
X106470000Y-102190000D03*
D23*
X115000000Y-102040000D03*
X115000000Y-103000000D03*
D24*
X111280000Y-98000000D03*
X110320000Y-98000000D03*
D21*
X103400000Y-97400000D03*
D23*
X118000000Y-102040000D03*
X118000000Y-103000000D03*
D25*
X110625000Y-103000000D03*
X113575000Y-103000000D03*
D26*
X113200000Y-96400000D03*
X114600000Y-96400000D03*
D27*
X116015000Y-103000000D03*
X116985000Y-103000000D03*
D28*
X112100000Y-101110000D03*
X112100000Y-100090000D03*
D29*
X124100000Y-104600000D03*
X124100000Y-98600000D03*
X118400000Y-95600000D03*
X104900000Y-94400000D03*
X113000000Y-100200000D03*
X116700000Y-93400000D03*
X123100000Y-98500000D03*
X105900000Y-93400000D03*
X115000000Y-104000000D03*
X116500000Y-102000000D03*
X123100000Y-104500000D03*
X111600000Y-94300000D03*
X114400000Y-101400000D03*
X114800000Y-105700000D03*
X116700000Y-106600000D03*
X115700000Y-93400000D03*
X109700000Y-93400000D03*
X118400000Y-98400000D03*
X118000000Y-104000000D03*
X121900000Y-101500000D03*
X110700000Y-93400000D03*
X120500000Y-93400000D03*
X121900000Y-98500000D03*
X121900000Y-95500000D03*
X107600000Y-96600000D03*
X123100000Y-95500000D03*
X112500000Y-104000000D03*
X117700000Y-101300000D03*
X124100000Y-95400000D03*
X120500000Y-106600000D03*
X103900000Y-95400000D03*
X122300000Y-93400000D03*
X124100000Y-106600000D03*
X123100000Y-101500000D03*
X115700000Y-106600000D03*
X114800000Y-94300000D03*
X112500000Y-105500000D03*
X120500000Y-102000000D03*
X116500000Y-104000000D03*
X118400000Y-94300000D03*
X112500000Y-102000000D03*
X113500000Y-104500000D03*
X113200000Y-94300000D03*
X121900000Y-104500000D03*
X112100000Y-99300000D03*
X118400000Y-105700000D03*
X124100000Y-101400000D03*
X112100000Y-98000000D03*
X110100000Y-96000000D03*
X118400000Y-100000000D03*
X120500000Y-104000000D03*
X122300000Y-106600000D03*
X124100000Y-93400000D03*
D30*
X108275000Y-106730000D02*
X113200000Y-106730000D01*
X108400000Y-101250000D02*
X107440000Y-101250000D01*
D31*
X110600000Y-101050000D02*
X110600000Y-102975000D01*
X110600000Y-102975000D02*
X110625000Y-103000000D01*
X112100000Y-101110000D02*
X110660000Y-101110000D01*
X110660000Y-101110000D02*
X110600000Y-101050000D01*
X116015000Y-103000000D02*
X115000000Y-103000000D01*
X113575000Y-103000000D02*
X115000000Y-103000000D01*
D32*
X107810000Y-98000000D02*
X107400000Y-98410000D01*
X108390000Y-98000000D02*
X107810000Y-98000000D01*
X107400000Y-100190000D02*
X107400000Y-98410000D01*
D31*
X116985000Y-103000000D02*
X118000000Y-103000000D01*
X118000000Y-103000000D02*
X121000000Y-103000000D01*
D30*
X121000000Y-97000000D02*
X117700000Y-97000000D01*
X117100000Y-96400000D02*
X114600000Y-96400000D01*
X117700000Y-97000000D02*
X117100000Y-96400000D01*
X113200000Y-96400000D02*
X111550000Y-96400000D01*
%TA.AperFunction,Conductor*%
G36*
X111842121Y-95820002D02*
G01*
X111888614Y-95873658D01*
X111900000Y-95926000D01*
X111900000Y-96874000D01*
X111879998Y-96942121D01*
X111826342Y-96988614D01*
X111774000Y-97000000D01*
X111400000Y-97000000D01*
X110700000Y-97700000D01*
X110700000Y-98400000D01*
X110963095Y-98663095D01*
X110997121Y-98725407D01*
X111000000Y-98752190D01*
X111000000Y-99574000D01*
X110979998Y-99642121D01*
X110926342Y-99688614D01*
X110874000Y-99700000D01*
X108126000Y-99700000D01*
X108057879Y-99679998D01*
X108011386Y-99626342D01*
X108000000Y-99574000D01*
X108000000Y-98826000D01*
X108020002Y-98757879D01*
X108073658Y-98711386D01*
X108126000Y-98700000D01*
X108700000Y-98700000D01*
X109200000Y-98200000D01*
X109200000Y-97752190D01*
X109220002Y-97684069D01*
X109236905Y-97663095D01*
X109400000Y-97500000D01*
X109400000Y-97356677D01*
X109420002Y-97288556D01*
X109473658Y-97242063D01*
X109484252Y-97237794D01*
X109504302Y-97230753D01*
X109504301Y-97230753D01*
X109513184Y-97227634D01*
X109520754Y-97222042D01*
X109520757Y-97222041D01*
X109614579Y-97152742D01*
X109622150Y-97147150D01*
X109686819Y-97059596D01*
X109697041Y-97045757D01*
X109697042Y-97045754D01*
X109702634Y-97038184D01*
X109705755Y-97029297D01*
X109715224Y-97002335D01*
X109745011Y-96954989D01*
X110187958Y-96512042D01*
X110243911Y-96479574D01*
X110300817Y-96464060D01*
X110422991Y-96389045D01*
X110447369Y-96362113D01*
X110513178Y-96289407D01*
X110519200Y-96282754D01*
X110581710Y-96153733D01*
X110583199Y-96144882D01*
X110585929Y-96136328D01*
X110589145Y-96137354D01*
X110617357Y-96082643D01*
X110863095Y-95836905D01*
X110925407Y-95802879D01*
X110952190Y-95800000D01*
X111774000Y-95800000D01*
X111842121Y-95820002D01*
G37*
%TD.AperFunction*%
%TA.AperFunction,Conductor*%
G36*
X123980082Y-92801624D02*
G01*
X124000000Y-92805136D01*
X124006376Y-92804012D01*
X124006378Y-92804012D01*
X124006872Y-92803925D01*
X124026971Y-92803157D01*
X124129212Y-92813227D01*
X124143440Y-92816057D01*
X124260713Y-92851631D01*
X124274115Y-92857183D01*
X124382193Y-92914952D01*
X124394255Y-92923011D01*
X124488987Y-93000755D01*
X124499245Y-93011013D01*
X124576989Y-93105745D01*
X124585048Y-93117807D01*
X124642817Y-93225885D01*
X124648369Y-93239287D01*
X124683943Y-93356560D01*
X124686773Y-93370788D01*
X124696843Y-93473029D01*
X124696075Y-93493128D01*
X124695988Y-93493622D01*
X124694864Y-93500000D01*
X124695988Y-93506374D01*
X124698376Y-93519917D01*
X124699500Y-93532767D01*
X124699500Y-106467233D01*
X124698376Y-106480082D01*
X124694864Y-106500000D01*
X124695988Y-106506376D01*
X124695988Y-106506378D01*
X124696075Y-106506872D01*
X124696843Y-106526971D01*
X124686773Y-106629212D01*
X124683943Y-106643440D01*
X124648369Y-106760713D01*
X124642817Y-106774115D01*
X124585048Y-106882193D01*
X124576989Y-106894255D01*
X124499245Y-106988987D01*
X124488987Y-106999245D01*
X124394255Y-107076989D01*
X124382193Y-107085048D01*
X124274115Y-107142817D01*
X124260713Y-107148369D01*
X124143440Y-107183943D01*
X124129212Y-107186773D01*
X124026971Y-107196843D01*
X124006872Y-107196075D01*
X124006378Y-107195988D01*
X124006376Y-107195988D01*
X124000000Y-107194864D01*
X123988777Y-107196843D01*
X123980083Y-107198376D01*
X123967233Y-107199500D01*
X112074000Y-107199500D01*
X112026434Y-107182187D01*
X112001124Y-107138350D01*
X112000000Y-107125500D01*
X112000000Y-102318481D01*
X112849500Y-102318481D01*
X112849501Y-103681518D01*
X112864354Y-103775304D01*
X112893152Y-103831823D01*
X112919304Y-103883150D01*
X112919306Y-103883152D01*
X112921950Y-103888342D01*
X113011658Y-103978050D01*
X113016848Y-103980694D01*
X113016850Y-103980696D01*
X113119502Y-104033000D01*
X113119505Y-104033001D01*
X113124696Y-104035646D01*
X113130448Y-104036557D01*
X113130451Y-104036558D01*
X113215602Y-104050044D01*
X113218481Y-104050500D01*
X113575000Y-104050500D01*
X113931518Y-104050499D01*
X113934390Y-104050044D01*
X113934392Y-104050044D01*
X113966090Y-104045024D01*
X114025304Y-104035646D01*
X114081823Y-104006848D01*
X114133150Y-103980696D01*
X114133152Y-103980694D01*
X114138342Y-103978050D01*
X114228050Y-103888342D01*
X114230694Y-103883152D01*
X114230696Y-103883150D01*
X114283000Y-103780498D01*
X114283001Y-103780495D01*
X114285646Y-103775304D01*
X114286557Y-103769552D01*
X114286558Y-103769549D01*
X114300045Y-103684392D01*
X114300500Y-103681519D01*
X114300500Y-103603000D01*
X114317813Y-103555434D01*
X114361650Y-103530124D01*
X114374500Y-103529000D01*
X116051304Y-103529000D01*
X116158596Y-103514303D01*
X116163225Y-103512300D01*
X116163228Y-103512299D01*
X116286984Y-103458744D01*
X116286985Y-103458743D01*
X116291612Y-103456741D01*
X116295532Y-103453567D01*
X116326467Y-103428517D01*
X116326472Y-103428512D01*
X116333939Y-103422466D01*
X116334213Y-103422344D01*
X116334734Y-103421822D01*
X116404250Y-103365530D01*
X116437703Y-103318456D01*
X116479370Y-103289712D01*
X116529764Y-103294476D01*
X116552494Y-103311234D01*
X116644633Y-103411433D01*
X116767814Y-103487809D01*
X116772657Y-103489216D01*
X116903271Y-103527163D01*
X116903273Y-103527163D01*
X116906996Y-103528245D01*
X116912536Y-103528652D01*
X116915923Y-103528901D01*
X116915936Y-103528901D01*
X116917278Y-103529000D01*
X120298819Y-103529000D01*
X120346385Y-103546313D01*
X120360348Y-103561888D01*
X120373631Y-103581767D01*
X120391496Y-103608504D01*
X120441278Y-103641767D01*
X120448424Y-103643188D01*
X120448425Y-103643189D01*
X120481610Y-103649790D01*
X120481611Y-103649790D01*
X120485180Y-103650500D01*
X121514820Y-103650500D01*
X121518389Y-103649790D01*
X121518390Y-103649790D01*
X121551575Y-103643189D01*
X121551576Y-103643188D01*
X121558722Y-103641767D01*
X121608504Y-103608504D01*
X121641767Y-103558722D01*
X121644236Y-103546313D01*
X121649790Y-103518390D01*
X121649790Y-103518389D01*
X121650500Y-103514820D01*
X121650500Y-102485180D01*
X121648045Y-102472837D01*
X121643189Y-102448425D01*
X121643188Y-102448424D01*
X121641767Y-102441278D01*
X121608504Y-102391496D01*
X121558722Y-102358233D01*
X121551576Y-102356812D01*
X121551575Y-102356811D01*
X121518390Y-102350210D01*
X121518389Y-102350210D01*
X121514820Y-102349500D01*
X120485180Y-102349500D01*
X120481611Y-102350210D01*
X120481610Y-102350210D01*
X120448425Y-102356811D01*
X120448424Y-102356812D01*
X120441278Y-102358233D01*
X120391496Y-102391496D01*
X120387447Y-102397556D01*
X120387446Y-102397557D01*
X120360348Y-102438112D01*
X120319526Y-102468044D01*
X120298819Y-102471000D01*
X116948696Y-102471000D01*
X116841404Y-102485697D01*
X116836775Y-102487700D01*
X116836772Y-102487701D01*
X116713016Y-102541256D01*
X116713015Y-102541257D01*
X116708388Y-102543259D01*
X116704469Y-102546432D01*
X116704468Y-102546433D01*
X116673533Y-102571483D01*
X116673528Y-102571488D01*
X116666061Y-102577534D01*
X116665787Y-102577656D01*
X116665266Y-102578178D01*
X116595750Y-102634470D01*
X116592827Y-102638583D01*
X116562296Y-102681544D01*
X116520630Y-102710288D01*
X116470236Y-102705524D01*
X116447506Y-102688766D01*
X116358784Y-102592283D01*
X116355367Y-102588567D01*
X116232186Y-102512191D01*
X116217133Y-102507818D01*
X116096729Y-102472837D01*
X116096727Y-102472837D01*
X116093004Y-102471755D01*
X116087380Y-102471342D01*
X116084077Y-102471099D01*
X116084064Y-102471099D01*
X116082722Y-102471000D01*
X114374499Y-102471000D01*
X114326933Y-102453687D01*
X114301623Y-102409850D01*
X114300499Y-102397000D01*
X114300499Y-102318482D01*
X114285646Y-102224696D01*
X114256848Y-102168177D01*
X114230696Y-102116850D01*
X114230694Y-102116848D01*
X114228050Y-102111658D01*
X114138342Y-102021950D01*
X114133152Y-102019306D01*
X114133150Y-102019304D01*
X114030498Y-101967000D01*
X114030495Y-101966999D01*
X114025304Y-101964354D01*
X114019552Y-101963443D01*
X114019549Y-101963442D01*
X113934392Y-101949955D01*
X113931519Y-101949500D01*
X113928610Y-101949500D01*
X113575001Y-101949501D01*
X113218482Y-101949501D01*
X113215610Y-101949956D01*
X113215608Y-101949956D01*
X113183910Y-101954976D01*
X113124696Y-101964354D01*
X113070999Y-101991714D01*
X113016850Y-102019304D01*
X113016848Y-102019306D01*
X113011658Y-102021950D01*
X112921950Y-102111658D01*
X112919306Y-102116848D01*
X112919304Y-102116850D01*
X112867000Y-102219502D01*
X112864354Y-102224696D01*
X112863443Y-102230448D01*
X112863442Y-102230451D01*
X112849955Y-102315608D01*
X112849500Y-102318481D01*
X112000000Y-102318481D01*
X112000000Y-101713000D01*
X112017313Y-101665434D01*
X112061150Y-101640124D01*
X112074000Y-101639000D01*
X112136304Y-101639000D01*
X112243596Y-101624303D01*
X112248225Y-101622300D01*
X112248228Y-101622299D01*
X112371984Y-101568744D01*
X112371985Y-101568743D01*
X112376612Y-101566741D01*
X112384063Y-101560708D01*
X112485329Y-101478705D01*
X112489250Y-101475530D01*
X112573209Y-101357388D01*
X112622304Y-101221019D01*
X112632919Y-101076472D01*
X112625747Y-101040901D01*
X112605268Y-100939337D01*
X112605267Y-100939335D01*
X112604271Y-100934394D01*
X112538472Y-100805254D01*
X112440367Y-100698567D01*
X112317186Y-100622191D01*
X112266750Y-100607538D01*
X112181729Y-100582837D01*
X112181727Y-100582837D01*
X112178004Y-100581755D01*
X112172464Y-100581348D01*
X112169077Y-100581099D01*
X112169064Y-100581099D01*
X112167722Y-100581000D01*
X112074000Y-100581000D01*
X112026434Y-100563687D01*
X112001124Y-100519850D01*
X112000696Y-100514962D01*
X112000000Y-100513050D01*
X112000000Y-100500000D01*
X111213406Y-99713406D01*
X111192014Y-99667530D01*
X111194728Y-99640237D01*
X111196432Y-99634432D01*
X111196434Y-99634424D01*
X111197176Y-99631896D01*
X111205500Y-99574000D01*
X111205500Y-98752190D01*
X111204323Y-98730227D01*
X111201444Y-98703444D01*
X111177483Y-98626919D01*
X111143457Y-98564607D01*
X111108405Y-98517785D01*
X110927174Y-98336554D01*
X110905782Y-98290678D01*
X110905500Y-98284228D01*
X110905500Y-97815772D01*
X110922813Y-97768206D01*
X110927174Y-97763446D01*
X111443446Y-97247174D01*
X111489322Y-97225782D01*
X111495772Y-97225500D01*
X111982424Y-97225499D01*
X112031518Y-97225499D01*
X112034390Y-97225044D01*
X112034392Y-97225044D01*
X112066090Y-97220024D01*
X112125304Y-97210646D01*
X112181823Y-97181848D01*
X112233150Y-97155696D01*
X112233152Y-97155694D01*
X112238342Y-97153050D01*
X112328050Y-97063342D01*
X112330694Y-97058152D01*
X112330696Y-97058150D01*
X112383000Y-96955498D01*
X112383001Y-96955495D01*
X112385646Y-96950304D01*
X112391566Y-96912924D01*
X112416106Y-96868652D01*
X112464655Y-96850500D01*
X112757069Y-96850500D01*
X112798181Y-96862971D01*
X112835219Y-96887719D01*
X112835221Y-96887720D01*
X112841278Y-96891767D01*
X112848424Y-96893188D01*
X112848425Y-96893189D01*
X112881610Y-96899790D01*
X112881611Y-96899790D01*
X112885180Y-96900500D01*
X113514820Y-96900500D01*
X113518389Y-96899790D01*
X113518390Y-96899790D01*
X113551575Y-96893189D01*
X113551576Y-96893188D01*
X113558722Y-96891767D01*
X113608504Y-96858504D01*
X113641767Y-96808722D01*
X113650500Y-96764820D01*
X113650500Y-96460107D01*
X113652411Y-96443397D01*
X113654185Y-96435745D01*
X113650685Y-96386314D01*
X113650500Y-96381088D01*
X113650500Y-96364255D01*
X114145815Y-96364255D01*
X114146206Y-96369774D01*
X114149315Y-96413685D01*
X114149500Y-96418912D01*
X114149500Y-96764820D01*
X114158233Y-96808722D01*
X114191496Y-96858504D01*
X114241278Y-96891767D01*
X114248424Y-96893188D01*
X114248425Y-96893189D01*
X114281610Y-96899790D01*
X114281611Y-96899790D01*
X114285180Y-96900500D01*
X114914820Y-96900500D01*
X114918389Y-96899790D01*
X114918390Y-96899790D01*
X114951575Y-96893189D01*
X114951576Y-96893188D01*
X114958722Y-96891767D01*
X114964779Y-96887720D01*
X114964781Y-96887719D01*
X115001819Y-96862971D01*
X115042931Y-96850500D01*
X116882745Y-96850500D01*
X116930311Y-96867813D01*
X116935071Y-96872174D01*
X117359423Y-97296526D01*
X117365210Y-97303039D01*
X117388128Y-97332110D01*
X117392677Y-97335254D01*
X117392678Y-97335255D01*
X117437056Y-97365926D01*
X117438948Y-97367278D01*
X117482366Y-97399348D01*
X117482370Y-97399350D01*
X117486816Y-97402634D01*
X117491882Y-97404412D01*
X117492185Y-97404597D01*
X117492445Y-97404724D01*
X117494506Y-97405774D01*
X117494811Y-97405936D01*
X117495155Y-97406080D01*
X117499569Y-97409131D01*
X117517747Y-97414880D01*
X117556268Y-97427063D01*
X117558471Y-97427798D01*
X117609408Y-97445685D01*
X117614631Y-97447519D01*
X117619994Y-97447729D01*
X117621013Y-97447987D01*
X117624703Y-97448706D01*
X117628730Y-97449980D01*
X117635337Y-97450500D01*
X117689039Y-97450500D01*
X117691945Y-97450557D01*
X117744470Y-97452621D01*
X117749994Y-97452838D01*
X117755336Y-97451422D01*
X117759636Y-97450947D01*
X117767754Y-97450500D01*
X120276453Y-97450500D01*
X120324019Y-97467813D01*
X120349329Y-97511650D01*
X120349500Y-97512896D01*
X120349500Y-97514820D01*
X120352472Y-97529759D01*
X120353458Y-97534715D01*
X120358233Y-97558722D01*
X120391496Y-97608504D01*
X120441278Y-97641767D01*
X120448424Y-97643188D01*
X120448425Y-97643189D01*
X120481610Y-97649790D01*
X120481611Y-97649790D01*
X120485180Y-97650500D01*
X121514820Y-97650500D01*
X121518389Y-97649790D01*
X121518390Y-97649790D01*
X121551575Y-97643189D01*
X121551576Y-97643188D01*
X121558722Y-97641767D01*
X121608504Y-97608504D01*
X121641767Y-97558722D01*
X121646543Y-97534715D01*
X121649790Y-97518390D01*
X121649791Y-97518383D01*
X121650500Y-97514820D01*
X121650500Y-96485180D01*
X121649790Y-96481610D01*
X121643189Y-96448425D01*
X121643188Y-96448424D01*
X121641767Y-96441278D01*
X121608504Y-96391496D01*
X121558722Y-96358233D01*
X121551576Y-96356812D01*
X121551575Y-96356811D01*
X121518390Y-96350210D01*
X121518389Y-96350210D01*
X121514820Y-96349500D01*
X120485180Y-96349500D01*
X120481611Y-96350210D01*
X120481610Y-96350210D01*
X120448425Y-96356811D01*
X120448424Y-96356812D01*
X120441278Y-96358233D01*
X120391496Y-96391496D01*
X120358233Y-96441278D01*
X120356812Y-96448424D01*
X120356811Y-96448425D01*
X120353102Y-96467070D01*
X120349500Y-96485180D01*
X120348985Y-96485077D01*
X120328200Y-96528399D01*
X120282091Y-96549285D01*
X120276453Y-96549500D01*
X117917255Y-96549500D01*
X117869689Y-96532187D01*
X117864929Y-96527826D01*
X117440577Y-96103474D01*
X117434790Y-96096961D01*
X117415297Y-96072234D01*
X117415295Y-96072232D01*
X117411872Y-96067890D01*
X117362944Y-96034074D01*
X117361052Y-96032722D01*
X117317634Y-96000652D01*
X117317630Y-96000650D01*
X117313184Y-95997366D01*
X117308118Y-95995588D01*
X117307815Y-95995403D01*
X117307555Y-95995276D01*
X117305494Y-95994226D01*
X117305189Y-95994064D01*
X117304845Y-95993920D01*
X117300431Y-95990869D01*
X117243732Y-95972937D01*
X117241529Y-95972202D01*
X117190592Y-95954315D01*
X117190591Y-95954315D01*
X117185369Y-95952481D01*
X117180006Y-95952271D01*
X117178987Y-95952013D01*
X117175297Y-95951294D01*
X117171270Y-95950020D01*
X117164663Y-95949500D01*
X117110961Y-95949500D01*
X117108055Y-95949443D01*
X117055530Y-95947379D01*
X117050006Y-95947162D01*
X117044664Y-95948578D01*
X117040364Y-95949053D01*
X117032246Y-95949500D01*
X115042931Y-95949500D01*
X115001819Y-95937029D01*
X114964781Y-95912281D01*
X114964779Y-95912280D01*
X114958722Y-95908233D01*
X114951576Y-95906812D01*
X114951575Y-95906811D01*
X114918390Y-95900210D01*
X114918389Y-95900210D01*
X114914820Y-95899500D01*
X114285180Y-95899500D01*
X114281611Y-95900210D01*
X114281610Y-95900210D01*
X114248425Y-95906811D01*
X114248424Y-95906812D01*
X114241278Y-95908233D01*
X114191496Y-95941496D01*
X114158233Y-95991278D01*
X114156812Y-95998424D01*
X114156811Y-95998425D01*
X114150210Y-96031610D01*
X114149500Y-96035180D01*
X114149500Y-96339893D01*
X114147589Y-96356600D01*
X114145815Y-96364255D01*
X113650500Y-96364255D01*
X113650500Y-96035180D01*
X113649790Y-96031610D01*
X113643189Y-95998425D01*
X113643188Y-95998424D01*
X113641767Y-95991278D01*
X113608504Y-95941496D01*
X113558722Y-95908233D01*
X113551576Y-95906812D01*
X113551575Y-95906811D01*
X113518390Y-95900210D01*
X113518389Y-95900210D01*
X113514820Y-95899500D01*
X112885180Y-95899500D01*
X112881611Y-95900210D01*
X112881610Y-95900210D01*
X112848425Y-95906811D01*
X112848424Y-95906812D01*
X112841278Y-95908233D01*
X112835221Y-95912280D01*
X112835219Y-95912281D01*
X112798181Y-95937029D01*
X112757069Y-95949500D01*
X112464655Y-95949500D01*
X112417089Y-95932187D01*
X112391566Y-95887076D01*
X112386557Y-95855450D01*
X112385646Y-95849696D01*
X112356848Y-95793177D01*
X112330696Y-95741850D01*
X112330694Y-95741848D01*
X112328050Y-95736658D01*
X112238342Y-95646950D01*
X112233152Y-95644306D01*
X112233150Y-95644304D01*
X112130498Y-95592000D01*
X112130495Y-95591999D01*
X112125304Y-95589354D01*
X112119552Y-95588443D01*
X112119549Y-95588442D01*
X112034392Y-95574955D01*
X112031519Y-95574500D01*
X112028610Y-95574500D01*
X111550001Y-95574501D01*
X111068482Y-95574501D01*
X111065610Y-95574956D01*
X111065608Y-95574956D01*
X110980446Y-95588443D01*
X110980444Y-95588444D01*
X110974696Y-95589354D01*
X110970982Y-95591246D01*
X110952189Y-95594483D01*
X110952190Y-95594500D01*
X110951227Y-95594552D01*
X110951212Y-95594552D01*
X110931209Y-95595624D01*
X110931195Y-95595625D01*
X110930227Y-95595677D01*
X110929263Y-95595781D01*
X110929246Y-95595782D01*
X110914644Y-95597352D01*
X110903444Y-95598556D01*
X110899970Y-95599644D01*
X110899969Y-95599644D01*
X110830390Y-95621430D01*
X110830388Y-95621431D01*
X110826919Y-95622517D01*
X110823727Y-95624260D01*
X110774632Y-95651069D01*
X110764607Y-95656543D01*
X110717785Y-95691595D01*
X110472047Y-95937333D01*
X110470361Y-95939641D01*
X110470359Y-95939644D01*
X110436400Y-95986145D01*
X110436397Y-95986150D01*
X110434710Y-95988460D01*
X110433398Y-95991005D01*
X110433397Y-95991006D01*
X110429571Y-95998425D01*
X110406498Y-96043171D01*
X110406481Y-96043162D01*
X110404001Y-96050400D01*
X110390158Y-96073848D01*
X110388895Y-96077806D01*
X110388081Y-96080357D01*
X110384180Y-96090123D01*
X110377712Y-96103474D01*
X110351716Y-96157130D01*
X110339983Y-96174525D01*
X110297494Y-96221466D01*
X110281356Y-96234864D01*
X110227399Y-96267994D01*
X110208148Y-96276324D01*
X110189859Y-96281310D01*
X110187642Y-96282237D01*
X110142993Y-96300902D01*
X110142987Y-96300905D01*
X110140772Y-96301831D01*
X110084819Y-96334299D01*
X110082912Y-96335766D01*
X110082907Y-96335769D01*
X110053699Y-96358233D01*
X110042648Y-96366732D01*
X109599701Y-96809679D01*
X109598412Y-96811295D01*
X109598407Y-96811300D01*
X109572359Y-96843943D01*
X109572353Y-96843951D01*
X109571071Y-96845558D01*
X109541284Y-96892904D01*
X109521333Y-96934242D01*
X109521298Y-96934343D01*
X109512928Y-96949137D01*
X109491435Y-96978235D01*
X109481815Y-96991259D01*
X109466258Y-97006816D01*
X109424154Y-97037916D01*
X109407428Y-97047147D01*
X109407444Y-97047187D01*
X109396850Y-97051456D01*
X109339084Y-97086756D01*
X109285428Y-97133249D01*
X109267473Y-97150842D01*
X109264889Y-97155462D01*
X109225555Y-97225782D01*
X109222826Y-97230660D01*
X109202824Y-97298781D01*
X109194500Y-97356677D01*
X109194500Y-97384228D01*
X109177187Y-97431794D01*
X109172826Y-97436554D01*
X109091595Y-97517785D01*
X109090945Y-97518509D01*
X109090937Y-97518517D01*
X109078999Y-97531806D01*
X109076898Y-97534145D01*
X109076299Y-97534888D01*
X109076289Y-97534900D01*
X109062851Y-97551575D01*
X109059995Y-97555119D01*
X109022826Y-97626173D01*
X109002824Y-97694294D01*
X109002449Y-97696904D01*
X108997811Y-97729159D01*
X108995959Y-97738090D01*
X108994595Y-97743094D01*
X108992345Y-97748183D01*
X108991701Y-97753708D01*
X108991700Y-97753711D01*
X108989753Y-97770416D01*
X108989500Y-97772585D01*
X108989500Y-97774727D01*
X108989501Y-98089227D01*
X108972188Y-98136793D01*
X108967827Y-98141553D01*
X108936826Y-98172554D01*
X108890950Y-98193946D01*
X108842055Y-98180845D01*
X108813021Y-98139381D01*
X108810500Y-98120228D01*
X108810499Y-97774771D01*
X108810499Y-97772586D01*
X108807538Y-97747690D01*
X108803691Y-97739028D01*
X108767137Y-97656735D01*
X108764363Y-97650490D01*
X108757050Y-97643189D01*
X108693929Y-97580179D01*
X108689092Y-97575350D01*
X108682844Y-97572588D01*
X108682843Y-97572587D01*
X108596903Y-97534593D01*
X108596900Y-97534592D01*
X108591817Y-97532345D01*
X108581841Y-97531182D01*
X108569543Y-97529748D01*
X108569541Y-97529748D01*
X108567415Y-97529500D01*
X108391764Y-97529500D01*
X108212586Y-97529501D01*
X108210417Y-97529759D01*
X108210416Y-97529759D01*
X108193204Y-97531806D01*
X108193203Y-97531806D01*
X108187690Y-97532462D01*
X108182619Y-97534714D01*
X108182617Y-97534715D01*
X108114932Y-97564780D01*
X108090490Y-97575637D01*
X108015350Y-97650908D01*
X108012588Y-97657156D01*
X108012587Y-97657157D01*
X107980197Y-97730422D01*
X107945129Y-97766926D01*
X107912516Y-97774500D01*
X107817861Y-97774500D01*
X107813988Y-97774399D01*
X107781702Y-97772707D01*
X107773936Y-97772300D01*
X107766673Y-97775088D01*
X107751190Y-97781031D01*
X107740057Y-97784329D01*
X107723839Y-97787776D01*
X107723838Y-97787776D01*
X107716232Y-97789393D01*
X107709353Y-97794391D01*
X107692380Y-97803606D01*
X107691705Y-97803865D01*
X107691703Y-97803866D01*
X107684441Y-97806654D01*
X107667214Y-97823881D01*
X107658384Y-97831422D01*
X107638677Y-97845740D01*
X107634790Y-97852473D01*
X107634789Y-97852474D01*
X107634426Y-97853103D01*
X107622666Y-97868429D01*
X107523269Y-97967826D01*
X107477393Y-97989218D01*
X107470943Y-97989500D01*
X107194479Y-97989501D01*
X107172586Y-97989501D01*
X107170417Y-97989759D01*
X107170416Y-97989759D01*
X107153204Y-97991806D01*
X107153203Y-97991806D01*
X107147690Y-97992462D01*
X107142619Y-97994714D01*
X107142617Y-97994715D01*
X107056735Y-98032863D01*
X107050490Y-98035637D01*
X106975350Y-98110908D01*
X106972588Y-98117156D01*
X106972587Y-98117157D01*
X106934593Y-98203097D01*
X106934592Y-98203100D01*
X106932345Y-98208183D01*
X106929500Y-98232585D01*
X106929501Y-98587414D01*
X106932462Y-98612310D01*
X106934714Y-98617381D01*
X106934715Y-98617383D01*
X106971399Y-98699969D01*
X106975637Y-98709510D01*
X107050908Y-98784650D01*
X107057156Y-98787412D01*
X107057157Y-98787413D01*
X107130422Y-98819803D01*
X107166926Y-98854871D01*
X107174500Y-98887484D01*
X107174500Y-98926000D01*
X107157187Y-98973566D01*
X107113350Y-98998876D01*
X107100500Y-99000000D01*
X102374500Y-99000000D01*
X102326934Y-98982687D01*
X102301624Y-98938850D01*
X102300500Y-98926000D01*
X102300500Y-96355123D01*
X102317813Y-96307557D01*
X102322174Y-96302797D01*
X105802797Y-92822174D01*
X105848673Y-92800782D01*
X105855123Y-92800500D01*
X123967233Y-92800500D01*
X123980082Y-92801624D01*
G37*
%TD.AperFunction*%
M02*
