%TF.GenerationSoftware,KiCad,Pcbnew,6.0.4-6f826c9f35~116~ubuntu18.04.1*%
%TF.CreationDate,2022-04-20T20:45:48+02:00*%
%TF.ProjectId,FETProbe_tiny,46455450-726f-4626-955f-74696e792e6b,rev?*%
%TF.SameCoordinates,Original*%
%TF.FileFunction,Copper,L2,Bot*%
%TF.FilePolarity,Positive*%
%FSLAX46Y46*%
G04 Gerber Fmt 4.6, Leading zero omitted, Abs format (unit mm)*
G04 Created by KiCad (PCBNEW 6.0.4-6f826c9f35~116~ubuntu18.04.1) date 2022-04-20 20:45:48*
%MOMM*%
%LPD*%
G01*
G04 APERTURE LIST*
%TA.AperFunction,EtchedComponent*%
%ADD10C,1.250000*%
%TD*%
%TA.AperFunction,ComponentPad*%
%ADD11C,2.000000*%
%TD*%
%TA.AperFunction,ViaPad*%
%ADD12C,0.600000*%
%TD*%
G04 APERTURE END LIST*
G36*
X108970000Y-102240000D02*
G01*
X109370000Y-102240000D01*
X109370000Y-103440000D01*
X108970000Y-103440000D01*
X108970000Y-102240000D01*
G37*
G36*
X107970000Y-100940000D02*
G01*
X108370000Y-100940000D01*
X108370000Y-103440000D01*
X107970000Y-103440000D01*
X107970000Y-100940000D01*
G37*
G36*
X108470000Y-100940000D02*
G01*
X108870000Y-100940000D01*
X108870000Y-102140000D01*
X108470000Y-102140000D01*
X108470000Y-100940000D01*
G37*
G36*
X108970000Y-100940000D02*
G01*
X109370000Y-100940000D01*
X109370000Y-102140000D01*
X108970000Y-102140000D01*
X108970000Y-100940000D01*
G37*
G36*
X107470000Y-100940000D02*
G01*
X107870000Y-100940000D01*
X107870000Y-103440000D01*
X107470000Y-103440000D01*
X107470000Y-100940000D01*
G37*
G36*
X108470000Y-102240000D02*
G01*
X108870000Y-102240000D01*
X108870000Y-103440000D01*
X108470000Y-103440000D01*
X108470000Y-102240000D01*
G37*
D10*
X103995000Y-102190000D02*
G75*
G03*
X103995000Y-102190000I-625000J0D01*
G01*
G36*
X107370000Y-103440000D02*
G01*
X103370000Y-103440000D01*
X103370000Y-100940000D01*
X107370000Y-100940000D01*
X107370000Y-103440000D01*
G37*
D11*
X103370000Y-102190000D03*
X103400000Y-97400000D03*
D12*
X124100000Y-104600000D03*
X124100000Y-98600000D03*
X118400000Y-95600000D03*
X104900000Y-94400000D03*
X113000000Y-100200000D03*
X116700000Y-93400000D03*
X123100000Y-98500000D03*
X105900000Y-93400000D03*
X115000000Y-104000000D03*
X116500000Y-102000000D03*
X123100000Y-104500000D03*
X111600000Y-94300000D03*
X114400000Y-101400000D03*
X114800000Y-105700000D03*
X116700000Y-106600000D03*
X115700000Y-93400000D03*
X109700000Y-93400000D03*
X118400000Y-98400000D03*
X118000000Y-104000000D03*
X121900000Y-101500000D03*
X110700000Y-93400000D03*
X120500000Y-93400000D03*
X121900000Y-98500000D03*
X121900000Y-95500000D03*
X107600000Y-96600000D03*
X123100000Y-95500000D03*
X112500000Y-104000000D03*
X117700000Y-101300000D03*
X124100000Y-95400000D03*
X120500000Y-106600000D03*
X103900000Y-95400000D03*
X122300000Y-93400000D03*
X124100000Y-106600000D03*
X123100000Y-101500000D03*
X115700000Y-106600000D03*
X114800000Y-94300000D03*
X112500000Y-105500000D03*
X120500000Y-102000000D03*
X116500000Y-104000000D03*
X118400000Y-94300000D03*
X112500000Y-102000000D03*
X113500000Y-104500000D03*
X113200000Y-94300000D03*
X121900000Y-104500000D03*
X112100000Y-99300000D03*
X118400000Y-105700000D03*
X124100000Y-101400000D03*
X112100000Y-98000000D03*
X110100000Y-96000000D03*
X118400000Y-100000000D03*
X120500000Y-104000000D03*
X122300000Y-106600000D03*
X124100000Y-93400000D03*
%TA.AperFunction,Conductor*%
G36*
X123980082Y-92801624D02*
G01*
X124000000Y-92805136D01*
X124006376Y-92804012D01*
X124006378Y-92804012D01*
X124006872Y-92803925D01*
X124026971Y-92803157D01*
X124129212Y-92813227D01*
X124143440Y-92816057D01*
X124260713Y-92851631D01*
X124274115Y-92857183D01*
X124382193Y-92914952D01*
X124394255Y-92923011D01*
X124488987Y-93000755D01*
X124499245Y-93011013D01*
X124576989Y-93105745D01*
X124585048Y-93117807D01*
X124642817Y-93225885D01*
X124648369Y-93239287D01*
X124683943Y-93356560D01*
X124686773Y-93370788D01*
X124696843Y-93473029D01*
X124696075Y-93493128D01*
X124695988Y-93493622D01*
X124694864Y-93500000D01*
X124695988Y-93506374D01*
X124698376Y-93519917D01*
X124699500Y-93532767D01*
X124699500Y-106467233D01*
X124698376Y-106480082D01*
X124694864Y-106500000D01*
X124695988Y-106506376D01*
X124695988Y-106506378D01*
X124696075Y-106506872D01*
X124696843Y-106526971D01*
X124686773Y-106629212D01*
X124683943Y-106643440D01*
X124648369Y-106760713D01*
X124642817Y-106774115D01*
X124585048Y-106882193D01*
X124576989Y-106894255D01*
X124499245Y-106988987D01*
X124488987Y-106999245D01*
X124394255Y-107076989D01*
X124382193Y-107085048D01*
X124274115Y-107142817D01*
X124260713Y-107148369D01*
X124143440Y-107183943D01*
X124129212Y-107186773D01*
X124026971Y-107196843D01*
X124006872Y-107196075D01*
X124006378Y-107195988D01*
X124006376Y-107195988D01*
X124000000Y-107194864D01*
X123988777Y-107196843D01*
X123980083Y-107198376D01*
X123967233Y-107199500D01*
X112074000Y-107199500D01*
X112026434Y-107182187D01*
X112001124Y-107138350D01*
X112000000Y-107125500D01*
X112000000Y-100500000D01*
X110500000Y-99000000D01*
X102374500Y-99000000D01*
X102326934Y-98982687D01*
X102301624Y-98938850D01*
X102300500Y-98926000D01*
X102300500Y-96355123D01*
X102317813Y-96307557D01*
X102322174Y-96302797D01*
X105802797Y-92822174D01*
X105848673Y-92800782D01*
X105855123Y-92800500D01*
X123967233Y-92800500D01*
X123980082Y-92801624D01*
G37*
%TD.AperFunction*%
M02*
