%FSLAX45Y45*%
G04 Gerber Fmt 4.5, Leading zero omitted, Abs format (unit mm)*
G04 Created by KiCad (PCBNEW 6.0.4-6f826c9f35~116~ubuntu18.04.1) date 2022-04-20 20:46:26*
%MOMM*%
%LPD*%
G01*
G04 APERTURE LIST*
%TA.AperFunction,Profile*%
%ADD10C,0.100000*%
%TD*%
%ADD11C,0.200000*%
%ADD12C,0.030000*%
%ADD13C,0.100000*%
G04 APERTURE END LIST*
D10*
X12400000Y-10750000D02*
G75*
G03*
X12500000Y-10650000I0J100000D01*
G01*
X10200000Y-10320000D02*
X10200000Y-9620000D01*
X12500000Y-9350000D02*
G75*
G03*
X12400000Y-9250000I-100000J0D01*
G01*
X12500000Y-9350000D02*
X12500000Y-10650000D01*
X10200000Y-9620000D02*
X10570000Y-9250000D01*
X10630000Y-10750000D02*
X12400000Y-10750000D01*
X10200000Y-10320000D02*
X10630000Y-10750000D01*
X10570000Y-9250000D02*
X12400000Y-9250000D01*
D11*
D12*
X10375000Y-9525000D02*
X10405000Y-9555000D01*
X10405000Y-9525000D02*
X10375000Y-9555000D01*
X10475000Y-9425000D02*
X10505000Y-9455000D01*
X10505000Y-9425000D02*
X10475000Y-9455000D01*
X10575000Y-9325000D02*
X10605000Y-9355000D01*
X10605000Y-9325000D02*
X10575000Y-9355000D01*
X10745000Y-9645000D02*
X10775000Y-9675000D01*
X10775000Y-9645000D02*
X10745000Y-9675000D01*
X10955000Y-9325000D02*
X10985000Y-9355000D01*
X10985000Y-9325000D02*
X10955000Y-9355000D01*
X10995000Y-9585000D02*
X11025000Y-9615000D01*
X11025000Y-9585000D02*
X10995000Y-9615000D01*
X11055000Y-9325000D02*
X11085000Y-9355000D01*
X11085000Y-9325000D02*
X11055000Y-9355000D01*
X11145000Y-9415000D02*
X11175000Y-9445000D01*
X11175000Y-9415000D02*
X11145000Y-9445000D01*
X11195000Y-9785000D02*
X11225000Y-9815000D01*
X11225000Y-9785000D02*
X11195000Y-9815000D01*
X11195000Y-9915000D02*
X11225000Y-9945000D01*
X11225000Y-9915000D02*
X11195000Y-9945000D01*
X11235000Y-10185000D02*
X11265000Y-10215000D01*
X11265000Y-10185000D02*
X11235000Y-10215000D01*
X11235000Y-10385000D02*
X11265000Y-10415000D01*
X11265000Y-10385000D02*
X11235000Y-10415000D01*
X11235000Y-10535000D02*
X11265000Y-10565000D01*
X11265000Y-10535000D02*
X11235000Y-10565000D01*
X11285000Y-10005000D02*
X11315000Y-10035000D01*
X11315000Y-10005000D02*
X11285000Y-10035000D01*
X11305000Y-9415000D02*
X11335000Y-9445000D01*
X11335000Y-9415000D02*
X11305000Y-9445000D01*
X11335000Y-10435000D02*
X11365000Y-10465000D01*
X11365000Y-10435000D02*
X11335000Y-10465000D01*
X11425000Y-10125000D02*
X11455000Y-10155000D01*
X11455000Y-10125000D02*
X11425000Y-10155000D01*
X11465000Y-9415000D02*
X11495000Y-9445000D01*
X11495000Y-9415000D02*
X11465000Y-9445000D01*
X11465000Y-10555000D02*
X11495000Y-10585000D01*
X11495000Y-10555000D02*
X11465000Y-10585000D01*
X11485000Y-10385000D02*
X11515000Y-10415000D01*
X11515000Y-10385000D02*
X11485000Y-10415000D01*
X11555000Y-9325000D02*
X11585000Y-9355000D01*
X11585000Y-9325000D02*
X11555000Y-9355000D01*
X11555000Y-10645000D02*
X11585000Y-10675000D01*
X11585000Y-10645000D02*
X11555000Y-10675000D01*
X11635000Y-10185000D02*
X11665000Y-10215000D01*
X11665000Y-10185000D02*
X11635000Y-10215000D01*
X11635000Y-10385000D02*
X11665000Y-10415000D01*
X11665000Y-10385000D02*
X11635000Y-10415000D01*
X11655000Y-9325000D02*
X11685000Y-9355000D01*
X11685000Y-9325000D02*
X11655000Y-9355000D01*
X11655000Y-10645000D02*
X11685000Y-10675000D01*
X11685000Y-10645000D02*
X11655000Y-10675000D01*
X11755000Y-10115000D02*
X11785000Y-10145000D01*
X11785000Y-10115000D02*
X11755000Y-10145000D01*
X11785000Y-10385000D02*
X11815000Y-10415000D01*
X11815000Y-10385000D02*
X11785000Y-10415000D01*
X11825000Y-9415000D02*
X11855000Y-9445000D01*
X11855000Y-9415000D02*
X11825000Y-9445000D01*
X11825000Y-9545000D02*
X11855000Y-9575000D01*
X11855000Y-9545000D02*
X11825000Y-9575000D01*
X11825000Y-9825000D02*
X11855000Y-9855000D01*
X11855000Y-9825000D02*
X11825000Y-9855000D01*
X11825000Y-9985000D02*
X11855000Y-10015000D01*
X11855000Y-9985000D02*
X11825000Y-10015000D01*
X11825000Y-10555000D02*
X11855000Y-10585000D01*
X11855000Y-10555000D02*
X11825000Y-10585000D01*
X12035000Y-9325000D02*
X12065000Y-9355000D01*
X12065000Y-9325000D02*
X12035000Y-9355000D01*
X12035000Y-10185000D02*
X12065000Y-10215000D01*
X12065000Y-10185000D02*
X12035000Y-10215000D01*
X12035000Y-10385000D02*
X12065000Y-10415000D01*
X12065000Y-10385000D02*
X12035000Y-10415000D01*
X12035000Y-10645000D02*
X12065000Y-10675000D01*
X12065000Y-10645000D02*
X12035000Y-10675000D01*
X12175000Y-9535000D02*
X12205000Y-9565000D01*
X12205000Y-9535000D02*
X12175000Y-9565000D01*
X12175000Y-9835000D02*
X12205000Y-9865000D01*
X12205000Y-9835000D02*
X12175000Y-9865000D01*
X12175000Y-10135000D02*
X12205000Y-10165000D01*
X12205000Y-10135000D02*
X12175000Y-10165000D01*
X12175000Y-10435000D02*
X12205000Y-10465000D01*
X12205000Y-10435000D02*
X12175000Y-10465000D01*
X12215000Y-9325000D02*
X12245000Y-9355000D01*
X12245000Y-9325000D02*
X12215000Y-9355000D01*
X12215000Y-10645000D02*
X12245000Y-10675000D01*
X12245000Y-10645000D02*
X12215000Y-10675000D01*
X12295000Y-9535000D02*
X12325000Y-9565000D01*
X12325000Y-9535000D02*
X12295000Y-9565000D01*
X12295000Y-9835000D02*
X12325000Y-9865000D01*
X12325000Y-9835000D02*
X12295000Y-9865000D01*
X12295000Y-10135000D02*
X12325000Y-10165000D01*
X12325000Y-10135000D02*
X12295000Y-10165000D01*
X12295000Y-10435000D02*
X12325000Y-10465000D01*
X12325000Y-10435000D02*
X12295000Y-10465000D01*
X12395000Y-9325000D02*
X12425000Y-9355000D01*
X12425000Y-9325000D02*
X12395000Y-9355000D01*
X12395000Y-9525000D02*
X12425000Y-9555000D01*
X12425000Y-9525000D02*
X12395000Y-9555000D01*
X12395000Y-9845000D02*
X12425000Y-9875000D01*
X12425000Y-9845000D02*
X12395000Y-9875000D01*
X12395000Y-10125000D02*
X12425000Y-10155000D01*
X12425000Y-10125000D02*
X12395000Y-10155000D01*
X12395000Y-10445000D02*
X12425000Y-10475000D01*
X12425000Y-10445000D02*
X12395000Y-10475000D01*
X12395000Y-10645000D02*
X12425000Y-10675000D01*
X12425000Y-10645000D02*
X12395000Y-10675000D01*
D13*
X10387000Y-10219000D02*
G75*
G03*
X10387000Y-10219000I-50000J0D01*
G01*
X10390000Y-9740000D02*
G75*
G03*
X10390000Y-9740000I-50000J0D01*
G01*
D11*
X10452619Y-11065476D02*
X10452619Y-10865476D01*
X10500238Y-10865476D01*
X10528810Y-10875000D01*
X10547857Y-10894048D01*
X10557381Y-10913095D01*
X10566905Y-10951190D01*
X10566905Y-10979762D01*
X10557381Y-11017857D01*
X10547857Y-11036905D01*
X10528810Y-11055952D01*
X10500238Y-11065476D01*
X10452619Y-11065476D01*
X10652619Y-11065476D02*
X10652619Y-10932143D01*
X10652619Y-10970238D02*
X10662143Y-10951190D01*
X10671667Y-10941667D01*
X10690714Y-10932143D01*
X10709762Y-10932143D01*
X10776429Y-11065476D02*
X10776429Y-10932143D01*
X10776429Y-10865476D02*
X10766905Y-10875000D01*
X10776429Y-10884524D01*
X10785952Y-10875000D01*
X10776429Y-10865476D01*
X10776429Y-10884524D01*
X10900238Y-11065476D02*
X10881190Y-11055952D01*
X10871667Y-11036905D01*
X10871667Y-10865476D01*
X11005000Y-11065476D02*
X10985952Y-11055952D01*
X10976429Y-11036905D01*
X10976429Y-10865476D01*
X11233571Y-11065476D02*
X11233571Y-10865476D01*
X11300238Y-11008333D01*
X11366905Y-10865476D01*
X11366905Y-11065476D01*
X11547857Y-11065476D02*
X11547857Y-10960714D01*
X11538333Y-10941667D01*
X11519286Y-10932143D01*
X11481190Y-10932143D01*
X11462143Y-10941667D01*
X11547857Y-11055952D02*
X11528809Y-11065476D01*
X11481190Y-11065476D01*
X11462143Y-11055952D01*
X11452619Y-11036905D01*
X11452619Y-11017857D01*
X11462143Y-10998810D01*
X11481190Y-10989286D01*
X11528809Y-10989286D01*
X11547857Y-10979762D01*
X11643095Y-10932143D02*
X11643095Y-11132143D01*
X11643095Y-10941667D02*
X11662143Y-10932143D01*
X11700238Y-10932143D01*
X11719286Y-10941667D01*
X11728809Y-10951190D01*
X11738333Y-10970238D01*
X11738333Y-11027381D01*
X11728809Y-11046429D01*
X11719286Y-11055952D01*
X11700238Y-11065476D01*
X11662143Y-11065476D01*
X11643095Y-11055952D01*
X11824048Y-11046429D02*
X11833571Y-11055952D01*
X11824048Y-11065476D01*
X11814524Y-11055952D01*
X11824048Y-11046429D01*
X11824048Y-11065476D01*
X11824048Y-10941667D02*
X11833571Y-10951190D01*
X11824048Y-10960714D01*
X11814524Y-10951190D01*
X11824048Y-10941667D01*
X11824048Y-10960714D01*
D12*
X10165000Y-11380000D02*
X10195000Y-11410000D01*
X10195000Y-11380000D02*
X10165000Y-11410000D01*
D11*
X10490714Y-11285476D02*
X10509762Y-11285476D01*
X10528810Y-11295000D01*
X10538333Y-11304524D01*
X10547857Y-11323571D01*
X10557381Y-11361667D01*
X10557381Y-11409286D01*
X10547857Y-11447381D01*
X10538333Y-11466428D01*
X10528810Y-11475952D01*
X10509762Y-11485476D01*
X10490714Y-11485476D01*
X10471667Y-11475952D01*
X10462143Y-11466428D01*
X10452619Y-11447381D01*
X10443095Y-11409286D01*
X10443095Y-11361667D01*
X10452619Y-11323571D01*
X10462143Y-11304524D01*
X10471667Y-11295000D01*
X10490714Y-11285476D01*
X10643095Y-11466428D02*
X10652619Y-11475952D01*
X10643095Y-11485476D01*
X10633571Y-11475952D01*
X10643095Y-11466428D01*
X10643095Y-11485476D01*
X10719286Y-11285476D02*
X10843095Y-11285476D01*
X10776429Y-11361667D01*
X10805000Y-11361667D01*
X10824048Y-11371190D01*
X10833571Y-11380714D01*
X10843095Y-11399762D01*
X10843095Y-11447381D01*
X10833571Y-11466428D01*
X10824048Y-11475952D01*
X10805000Y-11485476D01*
X10747857Y-11485476D01*
X10728810Y-11475952D01*
X10719286Y-11466428D01*
X10966905Y-11285476D02*
X10985952Y-11285476D01*
X11005000Y-11295000D01*
X11014524Y-11304524D01*
X11024048Y-11323571D01*
X11033571Y-11361667D01*
X11033571Y-11409286D01*
X11024048Y-11447381D01*
X11014524Y-11466428D01*
X11005000Y-11475952D01*
X10985952Y-11485476D01*
X10966905Y-11485476D01*
X10947857Y-11475952D01*
X10938333Y-11466428D01*
X10928810Y-11447381D01*
X10919286Y-11409286D01*
X10919286Y-11361667D01*
X10928810Y-11323571D01*
X10938333Y-11304524D01*
X10947857Y-11295000D01*
X10966905Y-11285476D01*
X11157381Y-11285476D02*
X11176429Y-11285476D01*
X11195476Y-11295000D01*
X11205000Y-11304524D01*
X11214524Y-11323571D01*
X11224048Y-11361667D01*
X11224048Y-11409286D01*
X11214524Y-11447381D01*
X11205000Y-11466428D01*
X11195476Y-11475952D01*
X11176429Y-11485476D01*
X11157381Y-11485476D01*
X11138333Y-11475952D01*
X11128810Y-11466428D01*
X11119286Y-11447381D01*
X11109762Y-11409286D01*
X11109762Y-11361667D01*
X11119286Y-11323571D01*
X11128810Y-11304524D01*
X11138333Y-11295000D01*
X11157381Y-11285476D01*
X11309762Y-11485476D02*
X11309762Y-11352143D01*
X11309762Y-11371190D02*
X11319286Y-11361667D01*
X11338333Y-11352143D01*
X11366905Y-11352143D01*
X11385952Y-11361667D01*
X11395476Y-11380714D01*
X11395476Y-11485476D01*
X11395476Y-11380714D02*
X11405000Y-11361667D01*
X11424048Y-11352143D01*
X11452619Y-11352143D01*
X11471667Y-11361667D01*
X11481190Y-11380714D01*
X11481190Y-11485476D01*
X11576428Y-11485476D02*
X11576428Y-11352143D01*
X11576428Y-11371190D02*
X11585952Y-11361667D01*
X11605000Y-11352143D01*
X11633571Y-11352143D01*
X11652619Y-11361667D01*
X11662143Y-11380714D01*
X11662143Y-11485476D01*
X11662143Y-11380714D02*
X11671667Y-11361667D01*
X11690714Y-11352143D01*
X11719286Y-11352143D01*
X11738333Y-11361667D01*
X11747857Y-11380714D01*
X11747857Y-11485476D01*
X12138333Y-11275952D02*
X11966905Y-11533095D01*
X12395476Y-11285476D02*
X12414524Y-11285476D01*
X12433571Y-11295000D01*
X12443095Y-11304524D01*
X12452619Y-11323571D01*
X12462143Y-11361667D01*
X12462143Y-11409286D01*
X12452619Y-11447381D01*
X12443095Y-11466428D01*
X12433571Y-11475952D01*
X12414524Y-11485476D01*
X12395476Y-11485476D01*
X12376428Y-11475952D01*
X12366905Y-11466428D01*
X12357381Y-11447381D01*
X12347857Y-11409286D01*
X12347857Y-11361667D01*
X12357381Y-11323571D01*
X12366905Y-11304524D01*
X12376428Y-11295000D01*
X12395476Y-11285476D01*
X12547857Y-11466428D02*
X12557381Y-11475952D01*
X12547857Y-11485476D01*
X12538333Y-11475952D01*
X12547857Y-11466428D01*
X12547857Y-11485476D01*
X12681190Y-11285476D02*
X12700238Y-11285476D01*
X12719286Y-11295000D01*
X12728809Y-11304524D01*
X12738333Y-11323571D01*
X12747857Y-11361667D01*
X12747857Y-11409286D01*
X12738333Y-11447381D01*
X12728809Y-11466428D01*
X12719286Y-11475952D01*
X12700238Y-11485476D01*
X12681190Y-11485476D01*
X12662143Y-11475952D01*
X12652619Y-11466428D01*
X12643095Y-11447381D01*
X12633571Y-11409286D01*
X12633571Y-11361667D01*
X12643095Y-11323571D01*
X12652619Y-11304524D01*
X12662143Y-11295000D01*
X12681190Y-11285476D01*
X12938333Y-11485476D02*
X12824048Y-11485476D01*
X12881190Y-11485476D02*
X12881190Y-11285476D01*
X12862143Y-11314048D01*
X12843095Y-11333095D01*
X12824048Y-11342619D01*
X13128809Y-11485476D02*
X13014524Y-11485476D01*
X13071667Y-11485476D02*
X13071667Y-11285476D01*
X13052619Y-11314048D01*
X13033571Y-11333095D01*
X13014524Y-11342619D01*
X13243095Y-11371190D02*
X13224048Y-11361667D01*
X13214524Y-11352143D01*
X13205000Y-11333095D01*
X13205000Y-11323571D01*
X13214524Y-11304524D01*
X13224048Y-11295000D01*
X13243095Y-11285476D01*
X13281190Y-11285476D01*
X13300238Y-11295000D01*
X13309762Y-11304524D01*
X13319286Y-11323571D01*
X13319286Y-11333095D01*
X13309762Y-11352143D01*
X13300238Y-11361667D01*
X13281190Y-11371190D01*
X13243095Y-11371190D01*
X13224048Y-11380714D01*
X13214524Y-11390238D01*
X13205000Y-11409286D01*
X13205000Y-11447381D01*
X13214524Y-11466428D01*
X13224048Y-11475952D01*
X13243095Y-11485476D01*
X13281190Y-11485476D01*
X13300238Y-11475952D01*
X13309762Y-11466428D01*
X13319286Y-11447381D01*
X13319286Y-11409286D01*
X13309762Y-11390238D01*
X13300238Y-11380714D01*
X13281190Y-11371190D01*
X13395476Y-11285476D02*
X13395476Y-11323571D01*
X13471667Y-11285476D02*
X13471667Y-11323571D01*
X13766905Y-11561667D02*
X13757381Y-11552143D01*
X13738333Y-11523571D01*
X13728809Y-11504524D01*
X13719286Y-11475952D01*
X13709762Y-11428333D01*
X13709762Y-11390238D01*
X13719286Y-11342619D01*
X13728809Y-11314048D01*
X13738333Y-11295000D01*
X13757381Y-11266428D01*
X13766905Y-11256905D01*
X13938333Y-11285476D02*
X13843095Y-11285476D01*
X13833571Y-11380714D01*
X13843095Y-11371190D01*
X13862143Y-11361667D01*
X13909762Y-11361667D01*
X13928809Y-11371190D01*
X13938333Y-11380714D01*
X13947857Y-11399762D01*
X13947857Y-11447381D01*
X13938333Y-11466428D01*
X13928809Y-11475952D01*
X13909762Y-11485476D01*
X13862143Y-11485476D01*
X13843095Y-11475952D01*
X13833571Y-11466428D01*
X14014524Y-11285476D02*
X14138333Y-11285476D01*
X14071667Y-11361667D01*
X14100238Y-11361667D01*
X14119286Y-11371190D01*
X14128809Y-11380714D01*
X14138333Y-11399762D01*
X14138333Y-11447381D01*
X14128809Y-11466428D01*
X14119286Y-11475952D01*
X14100238Y-11485476D01*
X14043095Y-11485476D01*
X14024048Y-11475952D01*
X14014524Y-11466428D01*
X14376428Y-11485476D02*
X14376428Y-11285476D01*
X14462143Y-11485476D02*
X14462143Y-11380714D01*
X14452619Y-11361667D01*
X14433571Y-11352143D01*
X14405000Y-11352143D01*
X14385952Y-11361667D01*
X14376428Y-11371190D01*
X14585952Y-11485476D02*
X14566905Y-11475952D01*
X14557381Y-11466428D01*
X14547857Y-11447381D01*
X14547857Y-11390238D01*
X14557381Y-11371190D01*
X14566905Y-11361667D01*
X14585952Y-11352143D01*
X14614524Y-11352143D01*
X14633571Y-11361667D01*
X14643095Y-11371190D01*
X14652619Y-11390238D01*
X14652619Y-11447381D01*
X14643095Y-11466428D01*
X14633571Y-11475952D01*
X14614524Y-11485476D01*
X14585952Y-11485476D01*
X14766905Y-11485476D02*
X14747857Y-11475952D01*
X14738333Y-11456905D01*
X14738333Y-11285476D01*
X14919286Y-11475952D02*
X14900238Y-11485476D01*
X14862143Y-11485476D01*
X14843095Y-11475952D01*
X14833571Y-11456905D01*
X14833571Y-11380714D01*
X14843095Y-11361667D01*
X14862143Y-11352143D01*
X14900238Y-11352143D01*
X14919286Y-11361667D01*
X14928809Y-11380714D01*
X14928809Y-11399762D01*
X14833571Y-11418809D01*
X15005000Y-11475952D02*
X15024048Y-11485476D01*
X15062143Y-11485476D01*
X15081190Y-11475952D01*
X15090714Y-11456905D01*
X15090714Y-11447381D01*
X15081190Y-11428333D01*
X15062143Y-11418809D01*
X15033571Y-11418809D01*
X15014524Y-11409286D01*
X15005000Y-11390238D01*
X15005000Y-11380714D01*
X15014524Y-11361667D01*
X15033571Y-11352143D01*
X15062143Y-11352143D01*
X15081190Y-11361667D01*
X15157381Y-11561667D02*
X15166905Y-11552143D01*
X15185952Y-11523571D01*
X15195476Y-11504524D01*
X15205000Y-11475952D01*
X15214524Y-11428333D01*
X15214524Y-11390238D01*
X15205000Y-11342619D01*
X15195476Y-11314048D01*
X15185952Y-11295000D01*
X15166905Y-11266428D01*
X15157381Y-11256905D01*
D13*
X10195000Y-11659000D02*
G75*
G03*
X10195000Y-11659000I-50000J0D01*
G01*
D11*
X10557381Y-11749476D02*
X10443095Y-11749476D01*
X10500238Y-11749476D02*
X10500238Y-11549476D01*
X10481190Y-11578048D01*
X10462143Y-11597095D01*
X10443095Y-11606619D01*
X10643095Y-11730428D02*
X10652619Y-11739952D01*
X10643095Y-11749476D01*
X10633571Y-11739952D01*
X10643095Y-11730428D01*
X10643095Y-11749476D01*
X10776429Y-11549476D02*
X10795476Y-11549476D01*
X10814524Y-11559000D01*
X10824048Y-11568524D01*
X10833571Y-11587571D01*
X10843095Y-11625667D01*
X10843095Y-11673286D01*
X10833571Y-11711381D01*
X10824048Y-11730428D01*
X10814524Y-11739952D01*
X10795476Y-11749476D01*
X10776429Y-11749476D01*
X10757381Y-11739952D01*
X10747857Y-11730428D01*
X10738333Y-11711381D01*
X10728810Y-11673286D01*
X10728810Y-11625667D01*
X10738333Y-11587571D01*
X10747857Y-11568524D01*
X10757381Y-11559000D01*
X10776429Y-11549476D01*
X10966905Y-11549476D02*
X10985952Y-11549476D01*
X11005000Y-11559000D01*
X11014524Y-11568524D01*
X11024048Y-11587571D01*
X11033571Y-11625667D01*
X11033571Y-11673286D01*
X11024048Y-11711381D01*
X11014524Y-11730428D01*
X11005000Y-11739952D01*
X10985952Y-11749476D01*
X10966905Y-11749476D01*
X10947857Y-11739952D01*
X10938333Y-11730428D01*
X10928810Y-11711381D01*
X10919286Y-11673286D01*
X10919286Y-11625667D01*
X10928810Y-11587571D01*
X10938333Y-11568524D01*
X10947857Y-11559000D01*
X10966905Y-11549476D01*
X11157381Y-11549476D02*
X11176429Y-11549476D01*
X11195476Y-11559000D01*
X11205000Y-11568524D01*
X11214524Y-11587571D01*
X11224048Y-11625667D01*
X11224048Y-11673286D01*
X11214524Y-11711381D01*
X11205000Y-11730428D01*
X11195476Y-11739952D01*
X11176429Y-11749476D01*
X11157381Y-11749476D01*
X11138333Y-11739952D01*
X11128810Y-11730428D01*
X11119286Y-11711381D01*
X11109762Y-11673286D01*
X11109762Y-11625667D01*
X11119286Y-11587571D01*
X11128810Y-11568524D01*
X11138333Y-11559000D01*
X11157381Y-11549476D01*
X11309762Y-11749476D02*
X11309762Y-11616143D01*
X11309762Y-11635190D02*
X11319286Y-11625667D01*
X11338333Y-11616143D01*
X11366905Y-11616143D01*
X11385952Y-11625667D01*
X11395476Y-11644714D01*
X11395476Y-11749476D01*
X11395476Y-11644714D02*
X11405000Y-11625667D01*
X11424048Y-11616143D01*
X11452619Y-11616143D01*
X11471667Y-11625667D01*
X11481190Y-11644714D01*
X11481190Y-11749476D01*
X11576428Y-11749476D02*
X11576428Y-11616143D01*
X11576428Y-11635190D02*
X11585952Y-11625667D01*
X11605000Y-11616143D01*
X11633571Y-11616143D01*
X11652619Y-11625667D01*
X11662143Y-11644714D01*
X11662143Y-11749476D01*
X11662143Y-11644714D02*
X11671667Y-11625667D01*
X11690714Y-11616143D01*
X11719286Y-11616143D01*
X11738333Y-11625667D01*
X11747857Y-11644714D01*
X11747857Y-11749476D01*
X12138333Y-11539952D02*
X11966905Y-11797095D01*
X12395476Y-11549476D02*
X12414524Y-11549476D01*
X12433571Y-11559000D01*
X12443095Y-11568524D01*
X12452619Y-11587571D01*
X12462143Y-11625667D01*
X12462143Y-11673286D01*
X12452619Y-11711381D01*
X12443095Y-11730428D01*
X12433571Y-11739952D01*
X12414524Y-11749476D01*
X12395476Y-11749476D01*
X12376428Y-11739952D01*
X12366905Y-11730428D01*
X12357381Y-11711381D01*
X12347857Y-11673286D01*
X12347857Y-11625667D01*
X12357381Y-11587571D01*
X12366905Y-11568524D01*
X12376428Y-11559000D01*
X12395476Y-11549476D01*
X12547857Y-11730428D02*
X12557381Y-11739952D01*
X12547857Y-11749476D01*
X12538333Y-11739952D01*
X12547857Y-11730428D01*
X12547857Y-11749476D01*
X12681190Y-11549476D02*
X12700238Y-11549476D01*
X12719286Y-11559000D01*
X12728809Y-11568524D01*
X12738333Y-11587571D01*
X12747857Y-11625667D01*
X12747857Y-11673286D01*
X12738333Y-11711381D01*
X12728809Y-11730428D01*
X12719286Y-11739952D01*
X12700238Y-11749476D01*
X12681190Y-11749476D01*
X12662143Y-11739952D01*
X12652619Y-11730428D01*
X12643095Y-11711381D01*
X12633571Y-11673286D01*
X12633571Y-11625667D01*
X12643095Y-11587571D01*
X12652619Y-11568524D01*
X12662143Y-11559000D01*
X12681190Y-11549476D01*
X12814524Y-11549476D02*
X12938333Y-11549476D01*
X12871667Y-11625667D01*
X12900238Y-11625667D01*
X12919286Y-11635190D01*
X12928809Y-11644714D01*
X12938333Y-11663762D01*
X12938333Y-11711381D01*
X12928809Y-11730428D01*
X12919286Y-11739952D01*
X12900238Y-11749476D01*
X12843095Y-11749476D01*
X12824048Y-11739952D01*
X12814524Y-11730428D01*
X13033571Y-11749476D02*
X13071667Y-11749476D01*
X13090714Y-11739952D01*
X13100238Y-11730428D01*
X13119286Y-11701857D01*
X13128809Y-11663762D01*
X13128809Y-11587571D01*
X13119286Y-11568524D01*
X13109762Y-11559000D01*
X13090714Y-11549476D01*
X13052619Y-11549476D01*
X13033571Y-11559000D01*
X13024048Y-11568524D01*
X13014524Y-11587571D01*
X13014524Y-11635190D01*
X13024048Y-11654238D01*
X13033571Y-11663762D01*
X13052619Y-11673286D01*
X13090714Y-11673286D01*
X13109762Y-11663762D01*
X13119286Y-11654238D01*
X13128809Y-11635190D01*
X13300238Y-11616143D02*
X13300238Y-11749476D01*
X13252619Y-11539952D02*
X13205000Y-11682809D01*
X13328809Y-11682809D01*
X13395476Y-11549476D02*
X13395476Y-11587571D01*
X13471667Y-11549476D02*
X13471667Y-11587571D01*
X13766905Y-11825667D02*
X13757381Y-11816143D01*
X13738333Y-11787571D01*
X13728809Y-11768524D01*
X13719286Y-11739952D01*
X13709762Y-11692333D01*
X13709762Y-11654238D01*
X13719286Y-11606619D01*
X13728809Y-11578048D01*
X13738333Y-11559000D01*
X13757381Y-11530428D01*
X13766905Y-11520905D01*
X13833571Y-11568524D02*
X13843095Y-11559000D01*
X13862143Y-11549476D01*
X13909762Y-11549476D01*
X13928809Y-11559000D01*
X13938333Y-11568524D01*
X13947857Y-11587571D01*
X13947857Y-11606619D01*
X13938333Y-11635190D01*
X13824048Y-11749476D01*
X13947857Y-11749476D01*
X14185952Y-11749476D02*
X14185952Y-11549476D01*
X14271667Y-11749476D02*
X14271667Y-11644714D01*
X14262143Y-11625667D01*
X14243095Y-11616143D01*
X14214524Y-11616143D01*
X14195476Y-11625667D01*
X14185952Y-11635190D01*
X14395476Y-11749476D02*
X14376428Y-11739952D01*
X14366905Y-11730428D01*
X14357381Y-11711381D01*
X14357381Y-11654238D01*
X14366905Y-11635190D01*
X14376428Y-11625667D01*
X14395476Y-11616143D01*
X14424048Y-11616143D01*
X14443095Y-11625667D01*
X14452619Y-11635190D01*
X14462143Y-11654238D01*
X14462143Y-11711381D01*
X14452619Y-11730428D01*
X14443095Y-11739952D01*
X14424048Y-11749476D01*
X14395476Y-11749476D01*
X14576428Y-11749476D02*
X14557381Y-11739952D01*
X14547857Y-11720905D01*
X14547857Y-11549476D01*
X14728809Y-11739952D02*
X14709762Y-11749476D01*
X14671667Y-11749476D01*
X14652619Y-11739952D01*
X14643095Y-11720905D01*
X14643095Y-11644714D01*
X14652619Y-11625667D01*
X14671667Y-11616143D01*
X14709762Y-11616143D01*
X14728809Y-11625667D01*
X14738333Y-11644714D01*
X14738333Y-11663762D01*
X14643095Y-11682809D01*
X14814524Y-11739952D02*
X14833571Y-11749476D01*
X14871667Y-11749476D01*
X14890714Y-11739952D01*
X14900238Y-11720905D01*
X14900238Y-11711381D01*
X14890714Y-11692333D01*
X14871667Y-11682809D01*
X14843095Y-11682809D01*
X14824048Y-11673286D01*
X14814524Y-11654238D01*
X14814524Y-11644714D01*
X14824048Y-11625667D01*
X14843095Y-11616143D01*
X14871667Y-11616143D01*
X14890714Y-11625667D01*
X14966905Y-11825667D02*
X14976428Y-11816143D01*
X14995476Y-11787571D01*
X15005000Y-11768524D01*
X15014524Y-11739952D01*
X15024048Y-11692333D01*
X15024048Y-11654238D01*
X15014524Y-11606619D01*
X15005000Y-11578048D01*
X14995476Y-11559000D01*
X14976428Y-11530428D01*
X14966905Y-11520905D01*
M02*
