M48
; DRILL file {KiCad 6.0.4-6f826c9f35~116~ubuntu18.04.1} date Mi 20 Apr 2022 20:46:13 CEST
; FORMAT={-:-/ absolute / metric / decimal}
; #@! TF.CreationDate,2022-04-20T20:46:13+02:00
; #@! TF.GenerationSoftware,Kicad,Pcbnew,6.0.4-6f826c9f35~116~ubuntu18.04.1
; #@! TF.FileFunction,Plated,1,2,PTH
FMAT,2
METRIC
; #@! TA.AperFunction,Plated,PTH,ViaDrill
T1C0.300
; #@! TA.AperFunction,Plated,PTH,ComponentDrill
T2C1.000
%
G90
G05
T1
X103.9Y-95.4
X104.9Y-94.4
X105.9Y-93.4
X107.6Y-96.6
X109.7Y-93.4
X110.1Y-96.0
X110.7Y-93.4
X111.6Y-94.3
X112.1Y-98.0
X112.1Y-99.3
X112.5Y-102.0
X112.5Y-104.0
X112.5Y-105.5
X113.0Y-100.2
X113.2Y-94.3
X113.5Y-104.5
X114.4Y-101.4
X114.8Y-94.3
X114.8Y-105.7
X115.0Y-104.0
X115.7Y-93.4
X115.7Y-106.6
X116.5Y-102.0
X116.5Y-104.0
X116.7Y-93.4
X116.7Y-106.6
X117.7Y-101.3
X118.0Y-104.0
X118.4Y-94.3
X118.4Y-95.6
X118.4Y-98.4
X118.4Y-100.0
X118.4Y-105.7
X120.5Y-93.4
X120.5Y-102.0
X120.5Y-104.0
X120.5Y-106.6
X121.9Y-95.5
X121.9Y-98.5
X121.9Y-101.5
X121.9Y-104.5
X122.3Y-93.4
X122.3Y-106.6
X123.1Y-95.5
X123.1Y-98.5
X123.1Y-101.5
X123.1Y-104.5
X124.1Y-93.4
X124.1Y-95.4
X124.1Y-98.6
X124.1Y-101.4
X124.1Y-104.6
X124.1Y-106.6
T2
X103.37Y-102.19
X103.4Y-97.4
T0
M30
